<?xml version="1.0" standalone="no"?>
<!DOCTYPE svg PUBLIC "-//W3C//DTD SVG 20010904//EN"
 "http://www.w3.org/TR/2001/REC-SVG-20010904/DTD/svg10.dtd">
<svg version="1.0" xmlns="http://www.w3.org/2000/svg"
 width="1024.000000pt" height="427.000000pt" viewBox="0 0 1024.000000 427.000000"
 preserveAspectRatio="xMidYMid meet">

<g transform="translate(0.000000,427.000000) scale(0.100000,-0.100000)"
fill="#000000" stroke="none">
<path d="M5190 3675 c0 -19 4 -67 10 -107 5 -40 14 -111 21 -158 9 -68 18 -96
46 -142 20 -32 38 -58 41 -58 6 0 -4 119 -24 290 -8 69 -14 129 -13 135 2 23
20 -56 35 -153 9 -56 19 -100 22 -97 3 3 -1 44 -8 91 -10 72 -10 88 1 95 19
11 25 -2 50 -108 12 -51 24 -91 27 -89 3 4 -22 189 -33 244 -8 32 -35 28 -36
-5 -2 -28 -2 -28 -7 -3 -4 23 -5 24 -13 5 -7 -18 -8 -17 -8 7 -1 18 -13 36
-38 57 -51 42 -73 41 -73 -4z"/>
<path d="M5387 3704 c-4 -4 3 -18 15 -31 17 -18 32 -23 75 -23 34 0 55 -5 58
-12 23 -72 50 -139 52 -132 2 6 18 8 37 6 18 -2 69 3 112 11 133 26 162 28
186 15 13 -7 27 -19 31 -25 4 -7 14 -13 21 -13 14 0 117 -112 127 -139 4 -9
27 -47 53 -86 25 -38 46 -76 46 -82 0 -28 -19 -10 -54 50 -52 89 -135 197
-151 197 -8 0 -32 18 -54 40 -39 39 -41 40 -108 39 -37 -1 -79 -5 -93 -9 -16
-5 -2 -6 35 -3 54 5 62 3 83 -19 20 -22 23 -39 33 -214 7 -115 16 -199 24
-214 30 -57 95 -97 95 -59 0 6 -4 8 -9 5 -5 -3 -12 2 -16 12 -8 22 26 50 120
98 39 19 59 32 45 29 -14 -4 -54 -21 -90 -38 -36 -18 -68 -33 -71 -35 -3 -1
-6 5 -6 14 0 11 27 30 81 55 90 42 92 45 20 25 -85 -24 -114 -16 -114 32 0 24
10 28 28 10 8 -8 12 -8 12 -1 0 10 37 21 103 29 19 3 27 -1 27 -11 0 -8 3 -15
8 -15 4 0 13 -13 20 -30 16 -36 25 -37 44 -7 14 21 12 28 -39 112 -60 98 -220
302 -253 323 -17 10 -35 8 -113 -14 -50 -14 -100 -30 -110 -35 -9 -5 -28 -7
-41 -3 -13 3 -27 1 -30 -4 -3 -6 -15 -8 -25 -5 -20 5 -38 54 -26 73 3 5 -1 10
-9 10 -22 0 -20 20 2 20 9 1 31 12 47 25 l30 25 -45 0 c-25 0 -81 3 -125 6
-44 4 -83 3 -88 -2z m640 -317 c4 -6 -8 -2 -27 10 -19 12 -36 27 -39 34 -4 14
54 -25 66 -44z m-42 3 c4 -6 25 -20 48 -32 29 -15 37 -23 25 -26 -23 -5 -98
35 -98 53 0 17 16 20 25 5z m68 -77 c36 -5 53 -23 22 -23 -8 0 -15 -4 -15 -8
0 -5 -20 -13 -45 -19 l-45 -10 0 40 c0 36 2 39 23 33 12 -4 39 -10 60 -13z
m-49 -177 c-10 -8 -21 -12 -24 -10 -5 6 21 24 34 24 6 0 1 -6 -10 -14z"/>
<path d="M5622 3638 c2 -17 8 -33 14 -35 6 -2 8 10 6 32 -5 44 -24 47 -20 3z"/>
<path d="M5400 3625 c0 -8 4 -15 10 -15 5 0 7 7 4 15 -4 8 -8 15 -10 15 -2 0
-4 -7 -4 -15z"/>
<path d="M5440 3618 c0 -30 28 -146 41 -168 13 -24 11 6 -7 96 -17 82 -34 118
-34 72z"/>
<path d="M5488 3634 c-18 -17 23 -131 42 -119 4 3 15 -12 23 -33 23 -55 20
-18 -7 73 -22 73 -40 98 -58 79z"/>
<path d="M5320 3543 c0 -10 5 -25 10 -33 8 -12 10 -9 10 12 0 15 -4 30 -10 33
-5 3 -10 -2 -10 -12z"/>
<path d="M5530 3484 c0 -7 7 -27 15 -45 8 -19 14 -29 15 -23 0 7 -7 27 -15 45
-8 19 -14 29 -15 23z"/>
<path d="M5636 3467 c-21 -21 -23 -35 -29 -161 -12 -251 -9 -696 6 -696 9 0
12 89 12 413 l0 412 27 28 c14 15 22 27 17 27 -6 0 -20 -10 -33 -23z"/>
<path d="M3883 3357 c-6 -7 -43 -43 -82 -82 -39 -38 -71 -75 -71 -82 0 -6 -8
-14 -17 -18 -21 -7 -116 -125 -108 -133 3 -3 11 0 17 6 13 13 52 17 45 5 -3
-5 -8 -98 -11 -208 -4 -110 -8 -254 -11 -320 -2 -66 -7 -221 -11 -345 -9 -345
-8 -340 -74 -407 -17 -18 -29 -37 -25 -43 7 -12 42 -13 49 -2 6 11 100 17 234
16 64 0 97 3 88 8 -9 5 -73 9 -143 9 l-128 0 25 19 c14 11 33 20 44 20 16 0
17 2 5 17 -11 13 -11 17 -1 20 6 3 9 10 5 16 -7 13 17 -4 54 -37 44 -38 33 -8
-13 33 -66 61 -50 59 21 -2 32 -29 55 -46 51 -38 -7 10 -3 12 15 6 22 -6 22
-5 -6 19 -31 26 -28 34 5 16 42 -22 7 20 -62 76 -38 31 -67 58 -64 61 3 3 34
-18 70 -46 72 -56 82 -61 66 -31 -6 11 -8 20 -4 20 4 0 -18 18 -50 40 -31 22
-61 40 -66 40 -11 0 -11 -1 -15 58 -1 28 1 42 9 39 6 -2 11 -9 11 -15 0 -6 7
-17 15 -24 12 -11 12 -11 1 5 -18 24 -7 21 45 -9 25 -15 48 -24 51 -20 4 3 4
7 2 9 -2 1 -30 16 -62 32 -60 31 -95 60 -84 71 6 6 127 -63 138 -79 4 -5 10
-4 14 3 4 6 -1 20 -11 31 -10 11 -12 19 -6 19 20 0 13 18 -9 25 -11 4 -18 9
-15 13 3 3 -2 14 -11 25 -10 11 -12 17 -5 13 6 -4 12 -2 12 4 0 7 6 8 19 0 20
-10 40 3 22 15 -6 3 -8 12 -5 19 3 8 -4 16 -18 20 -19 5 -20 8 -8 16 13 8 12
10 -3 10 -10 0 -16 4 -13 9 7 11 -22 37 -51 45 -32 10 -29 2 10 -24 23 -16 26
-20 10 -15 -13 4 -23 2 -23 -4 0 -6 -7 -8 -15 -5 -10 4 -15 20 -15 50 l0 44
50 -20 c57 -22 90 -26 90 -9 0 6 -7 9 -15 5 -8 -3 -15 -2 -15 3 0 10 -45 29
-80 33 -20 2 -26 9 -28 36 -3 27 0 32 17 32 31 0 101 -33 101 -47 0 -7 -7 -13
-16 -13 -8 0 -12 -4 -9 -10 3 -5 15 -10 26 -10 14 0 19 7 19 29 0 27 -5 31
-65 51 l-65 22 0 64 c0 38 4 63 9 59 5 -3 12 -1 16 5 3 5 -1 10 -9 10 -13 0
-15 30 -13 225 1 124 3 225 4 225 1 0 32 -7 70 -16 75 -18 229 -19 250 -2 14
11 47 -6 91 -45 15 -14 26 -17 32 -11 7 7 -7 21 -42 44 -28 19 -46 36 -40 38
7 2 24 -6 38 -17 15 -12 29 -19 31 -17 7 7 -17 46 -29 46 -5 0 1 15 16 34 25
34 25 35 7 57 -17 22 -20 22 -42 7 -13 -9 -35 -25 -49 -37 -64 -57 -156 -83
-212 -62 -18 7 -28 7 -30 0 -5 -14 -58 10 -58 26 0 7 -7 18 -15 25 -8 7 -15
17 -15 22 0 6 16 -4 36 -22 23 -20 44 -30 55 -27 11 3 19 1 19 -4 0 -5 5 -9
10 -9 6 0 10 9 10 20 0 12 -7 20 -17 20 -10 0 -25 5 -33 11 -11 8 -7 9 18 5
31 -5 32 -5 32 32 0 20 12 60 25 87 14 28 25 58 25 68 0 20 -19 22 -37 4z
m-150 -1087 c3 -11 1 -20 -4 -20 -5 0 -9 9 -9 20 0 11 2 20 4 20 2 0 6 -9 9
-20z m12 -70 c3 -5 2 -10 -4 -10 -5 0 -13 5 -16 10 -3 6 -2 10 4 10 5 0 13 -4
16 -10z m-14 -267 c13 -16 12 -17 -3 -4 -17 13 -22 21 -14 21 2 0 10 -8 17
-17z"/>
<path d="M7491 3285 c-18 -25 -51 -64 -72 -87 -24 -27 -35 -46 -29 -53 16 -19
90 -57 90 -46 0 6 -7 11 -17 11 -15 0 -15 2 0 18 35 39 92 202 71 202 -5 0
-24 -21 -43 -45z"/>
<path d="M1537 3302 c14 -11 57 -13 208 -9 105 2 174 3 155 1 -19 -2 -64 -7
-100 -10 l-65 -6 33 -29 c41 -37 83 -38 128 -4 18 14 45 30 61 36 l28 12 -35
9 c-19 6 -84 8 -145 5 -60 -2 -150 -2 -198 2 -75 5 -85 4 -70 -7z"/>
<path d="M3910 3233 c0 -37 5 -75 10 -83 7 -11 10 8 9 63 -1 43 -6 80 -10 83
-5 3 -9 -25 -9 -63z"/>
<path d="M1548 3258 c15 -29 18 -94 23 -553 5 -514 5 -520 -15 -546 -12 -14
-34 -36 -51 -47 -16 -12 -48 -34 -70 -50 -22 -15 -74 -46 -115 -69 -64 -35
-82 -41 -124 -38 -27 2 -53 10 -58 17 -7 9 -8 8 -4 -5 3 -10 6 -24 6 -31 0 -7
11 -19 25 -26 14 -7 25 -22 25 -31 0 -30 50 -14 195 60 102 52 145 81 200 133
l70 66 -3 366 c-2 221 0 366 6 366 5 0 38 -13 73 -29 74 -33 119 -45 119 -33
0 5 -45 26 -100 47 -55 22 -100 42 -100 45 0 3 -2 70 -5 149 l-4 145 -48 48
c-55 56 -68 61 -45 16z m66 -1005 c11 -13 16 -23 13 -23 -10 0 -37 31 -37 42
0 6 1 9 3 7 1 -2 11 -14 21 -26z"/>
<path d="M1635 3250 c20 -19 43 -30 68 -33 28 -3 49 -15 82 -47 44 -43 65 -81
25 -45 -28 25 -25 3 3 -23 30 -29 36 -28 33 5 -2 20 -26 49 -82 100 -70 65
-83 73 -119 73 l-40 0 30 -30z"/>
<path d="M1928 3243 c-37 -46 -39 -69 -37 -412 1 -310 3 -399 7 -473 1 -18 8
-28 18 -28 11 0 14 5 9 17 -6 17 -11 183 -19 606 -4 214 -3 219 20 263 25 47
26 54 2 27z"/>
<path d="M5240 3233 c1 -10 9 -82 19 -159 16 -124 21 -146 47 -180 15 -22 29
-41 31 -43 20 -29 -9 276 -30 312 -52 90 -67 106 -67 70z"/>
<path d="M3039 3188 c-27 -22 -49 -42 -49 -45 0 -2 23 14 51 36 29 23 56 41
62 41 13 0 10 -3 -67 -65 -39 -32 -61 -43 -66 -36 -5 9 -10 8 -20 -4 -11 -13
-10 -15 4 -9 29 11 17 -4 -33 -40 -50 -37 -68 -45 -55 -24 4 7 3 8 -5 4 -6 -4
-9 -11 -6 -16 3 -5 -10 -21 -30 -36 -19 -14 -35 -29 -35 -33 0 -3 25 -6 55 -7
95 0 95 0 95 -251 0 -229 3 -248 54 -308 25 -29 26 -29 26 -7 0 12 2 22 4 22
2 0 32 -29 67 -65 34 -36 64 -63 67 -60 3 2 0 11 -6 18 -7 8 -9 17 -5 21 4 3
-6 19 -20 34 -15 16 -25 31 -22 34 4 3 -14 23 -39 43 -43 35 -57 55 -38 55 4
0 30 -22 57 -50 55 -54 65 -59 65 -31 0 12 -25 39 -64 69 -49 39 -63 56 -63
76 0 14 1 26 2 26 1 0 29 -16 61 -35 60 -36 87 -38 44 -3 -21 17 -22 19 -5 14
32 -10 -35 42 -72 56 -27 10 -33 18 -33 40 0 36 20 36 64 3 39 -30 56 -32 56
-7 0 10 -12 23 -27 30 l-28 12 28 -4 c17 -2 27 1 27 10 0 8 -23 18 -60 26
l-60 12 0 40 c0 31 3 37 12 28 7 -7 31 -12 55 -12 36 0 43 3 43 19 0 15 -8 21
-37 24 l-38 4 38 1 c26 1 37 7 37 17 0 12 -9 14 -42 9 -24 -3 -48 -7 -54 -9
-6 -2 -11 11 -12 29 -1 33 -1 33 61 43 34 6 76 16 93 23 19 8 41 10 60 5 l29
-8 -28 -8 c-39 -11 -57 -28 -57 -53 1 -19 2 -18 16 7 15 28 45 35 62 15 6 -7
22 -67 36 -133 15 -66 31 -138 36 -160 5 -23 6 -52 3 -65 l-6 -25 25 23 c14
12 43 35 66 50 118 79 152 105 152 118 0 8 -7 14 -15 14 -8 0 -15 -6 -15 -14
0 -12 -130 -116 -145 -116 -3 0 -3 15 1 34 5 31 -10 155 -26 204 -1 4 -3 12
-4 17 0 6 -10 30 -21 54 l-19 43 52 47 c36 31 52 54 52 70 0 22 -3 23 -36 18
-20 -3 -51 -18 -69 -32 -19 -14 -40 -25 -48 -25 -8 0 -20 -7 -28 -16 -9 -11
-22 -14 -43 -10 -24 5 -34 1 -52 -20 -16 -18 -34 -26 -61 -28 -21 -1 -44 -6
-52 -10 -9 -6 -21 0 -37 17 -12 14 -29 27 -36 30 -18 6 -12 10 62 35 51 17 57
21 28 18 -44 -5 -52 11 -10 20 52 11 62 15 62 24 0 5 -8 6 -17 3 -10 -4 3 16
29 43 46 47 60 74 37 74 -5 0 -7 4 -4 10 3 5 -9 9 -30 8 -26 -1 -51 -13 -86
-40z m-84 -207 c9 -16 -13 -23 -47 -16 -22 5 -27 9 -17 16 18 12 56 11 64 0z
m85 -275 c0 -3 -4 -8 -10 -11 -5 -3 -10 -1 -10 4 0 6 5 11 10 11 6 0 10 -2 10
-4z m85 -366 c10 -11 16 -20 13 -20 -3 0 -13 9 -23 20 -10 11 -16 20 -13 20 3
0 13 -9 23 -20z"/>
<path d="M6037 3200 c-21 -4 -43 -13 -50 -20 -10 -10 -7 -11 13 -6 14 4 40 9
58 13 17 3 32 10 32 14 0 5 -3 8 -7 8 -5 -1 -25 -5 -46 -9z"/>
<path d="M1835 3190 c3 -5 8 -10 11 -10 2 0 4 5 4 10 0 6 -5 10 -11 10 -5 0
-7 -4 -4 -10z"/>
<path d="M8024 3177 c-18 -19 -81 -118 -124 -194 -8 -14 -23 -35 -32 -45 -23
-24 -23 -31 6 -65 l24 -28 13 28 c9 21 10 30 1 39 -19 19 -14 33 6 15 17 -15
20 -14 45 14 15 17 27 35 27 40 0 5 14 55 30 111 17 56 29 103 27 105 -2 1
-13 -7 -23 -20z"/>
<path d="M5440 3188 c0 -11 102 -189 107 -185 2 3 -17 42 -42 88 -43 78 -65
111 -65 97z"/>
<path d="M3160 3110 c0 -33 4 -60 10 -60 6 0 10 27 10 60 0 33 -4 60 -10 60
-6 0 -10 -27 -10 -60z"/>
<path d="M894 3125 c78 -55 154 -44 93 13 -19 18 -35 22 -83 22 l-59 0 49 -35z"/>
<path d="M1030 3151 c0 -5 19 -25 42 -45 35 -31 43 -33 52 -20 7 8 34 28 61
44 l50 30 -102 0 c-57 0 -103 -4 -103 -9z"/>
<path d="M5445 3115 c15 -27 32 -54 37 -60 16 -15 -28 67 -47 90 -9 11 -5 -2
10 -30z"/>
<path d="M6237 3040 c-14 -222 -17 -253 -34 -393 -14 -119 -14 -162 1 -146 4
4 16 115 37 344 5 61 9 157 7 215 l-3 105 -8 -125z"/>
<path d="M7332 3107 l-31 -32 22 -29 23 -28 36 37 c36 37 36 39 20 61 -23 31
-32 30 -70 -9z"/>
<path d="M8036 3114 c-3 -9 -6 -76 -6 -149 0 -134 4 -165 22 -165 6 0 7 13 3
32 -4 17 -7 91 -7 165 0 73 -1 133 -3 133 -1 0 -6 -7 -9 -16z"/>
<path d="M810 3101 c6 -12 13 -95 16 -189 6 -206 11 -249 29 -256 8 -3 15 -11
15 -18 0 -9 -3 -9 -12 0 -7 7 -16 12 -20 12 -5 0 -6 -69 -2 -152 6 -132 10
-158 29 -191 12 -20 24 -34 27 -31 4 3 4 56 2 117 -3 62 -6 234 -7 384 l-2
271 -25 27 c-14 15 -33 31 -43 37 -16 8 -17 7 -7 -11z"/>
<path d="M1179 3104 c-10 -12 -12 -83 -10 -327 2 -172 4 -416 5 -544 0 -127 4
-235 8 -238 15 -15 27 6 18 30 -11 28 -16 1067 -6 1084 11 16 0 13 -15 -5z"/>
<path d="M6163 3100 c-3 -11 -19 -29 -37 -39 -17 -11 -43 -32 -56 -47 l-25
-27 30 18 c21 12 12 0 -27 -39 -31 -31 -57 -59 -57 -62 0 -2 -2 -10 -4 -17 -3
-6 -6 2 -6 19 -1 26 -34 81 -68 114 -3 3 -4 -49 -3 -115 2 -66 2 -162 1 -212
l-1 -93 -82 0 c-82 0 -189 -15 -220 -31 -11 -5 -20 -3 -29 7 -16 20 -23 10
-10 -15 15 -28 94 -39 130 -19 20 12 45 13 116 8 50 -4 81 -8 70 -9 -19 -2
-19 -2 -1 -12 14 -9 20 -8 26 1 4 7 16 9 29 5 15 -4 21 -2 21 8 0 8 7 21 16
28 12 10 15 24 10 60 -4 31 -3 50 5 55 8 4 9 0 4 -15 -3 -11 -2 -21 3 -21 5 0
13 16 16 35 4 20 23 65 41 102 19 36 35 72 35 79 0 7 23 40 52 74 37 45 48 64
38 70 -10 6 -10 8 0 12 8 2 14 24 16 51 2 37 -1 47 -13 47 -8 0 -17 -9 -20
-20z"/>
<path d="M1805 3080 c16 -16 33 -30 39 -30 5 0 -3 14 -19 30 -16 17 -33 30
-39 30 -5 0 3 -13 19 -30z"/>
<path d="M5420 3103 c0 -10 83 -133 88 -129 4 4 -77 136 -84 136 -2 0 -4 -3
-4 -7z"/>
<path d="M6000 3100 c-9 -6 -10 -10 -3 -10 6 0 15 5 18 10 8 12 4 12 -15 0z"/>
<path d="M890 3092 c0 -4 5 -13 11 -19 6 -6 15 -26 19 -45 l7 -33 10 25 c6 14
9 30 6 35 -6 14 -53 48 -53 37z"/>
<path d="M1781 3041 c50 -55 72 -70 61 -42 -7 17 -87 91 -99 91 -3 0 14 -22
38 -49z"/>
<path d="M7533 3045 c0 -27 2 -38 4 -22 2 15 2 37 0 50 -2 12 -4 0 -4 -28z"/>
<path d="M1105 3050 c3 -5 8 -10 11 -10 2 0 4 5 4 10 0 6 -5 10 -11 10 -5 0
-7 -4 -4 -10z"/>
<path d="M1720 3046 c0 -17 119 -111 128 -101 3 3 1 9 -4 13 -93 80 -124 103
-124 88z"/>
<path d="M4050 3040 c0 -5 -6 -10 -14 -10 -19 0 -14 -41 18 -155 31 -108 32
-130 6 -172 -11 -18 -16 -33 -10 -33 12 0 53 55 79 108 12 23 27 42 34 43 6 0
2 4 -9 9 -12 5 -24 19 -27 32 -16 66 -36 135 -42 152 -7 15 -1 14 36 -8 l44
-27 -39 36 c-38 33 -76 46 -76 25z"/>
<path d="M7216 3013 c-38 -30 -44 -38 -35 -54 11 -21 0 -26 -19 -7 -8 8 -25 1
-67 -32 -30 -23 -55 -46 -55 -51 0 -4 19 -2 41 6 23 8 52 15 65 15 12 0 26 5
29 10 4 6 25 20 48 31 23 11 53 29 66 40 21 18 23 22 11 44 -20 37 -35 37 -84
-2z"/>
<path d="M2305 2976 c-87 -41 -195 -110 -195 -125 0 -4 13 -17 29 -29 l29 -21
39 27 c21 15 71 45 111 66 l73 38 44 -41 c25 -23 50 -41 56 -41 14 0 159 -150
159 -165 1 -5 14 -26 30 -45 23 -26 33 -31 42 -22 9 9 8 16 -4 29 -27 32 -33
49 -10 29 12 -11 22 -15 22 -10 -1 15 -305 349 -321 351 -7 1 -54 -17 -104
-41z"/>
<path d="M1020 3003 c-41 -8 -48 -23 -9 -24 18 -1 45 -5 59 -9 19 -6 12 -8
-32 -9 -70 -1 -90 -21 -21 -21 26 0 59 -3 72 -7 20 -5 23 -3 18 11 -4 10 -3
15 3 11 6 -3 10 5 10 19 0 21 -5 26 -24 26 -13 0 -30 2 -38 4 -7 2 -24 1 -38
-1z"/>
<path d="M7444 2996 c11 -9 24 -16 30 -16 12 0 7 5 -24 19 -24 11 -24 11 -6
-3z"/>
<path d="M1685 2984 c11 -8 19 -21 17 -28 -1 -7 27 -30 63 -51 36 -21 65 -39
65 -41 0 -4 -97 33 -112 42 -4 3 -8 3 -8 0 0 -7 85 -50 116 -60 19 -6 21 -3
20 35 -1 39 -5 45 -56 80 -90 62 -79 34 15 -39 51 -39 -12 -5 -72 40 -29 21
-56 38 -60 38 -4 0 1 -7 12 -16z"/>
<path d="M911 2974 c0 -11 3 -14 6 -6 3 7 2 16 -1 19 -3 4 -6 -2 -5 -13z"/>
<path d="M5989 2953 c-13 -16 -12 -17 4 -4 16 13 21 21 13 21 -2 0 -10 -8 -17
-17z"/>
<path d="M7490 2960 c0 -3 7 -16 16 -28 15 -22 20 -23 87 -16 40 3 76 10 82
15 16 16 22 10 18 -18 -3 -26 -3 -27 6 -5 19 41 5 52 -68 54 -130 3 -141 3
-141 -2z"/>
<path d="M9288 2889 c-67 -60 -68 -61 -50 -84 9 -12 22 -21 28 -18 6 2 23 -15
38 -38 19 -27 31 -38 38 -31 6 6 1 23 -16 49 l-26 39 35 70 c19 38 35 70 35
72 0 10 -25 -7 -82 -59z"/>
<path d="M7429 2927 c14 -18 51 -42 51 -33 0 3 -15 15 -32 27 -24 17 -29 18
-19 6z"/>
<path d="M4280 2898 c0 -34 -6 -42 -69 -90 -38 -29 -72 -59 -75 -66 -7 -16 8
-8 59 33 75 60 110 99 107 120 -7 38 -22 40 -22 3z"/>
<path d="M7273 2905 c4 -9 1 -15 -8 -15 -19 0 -19 -27 0 -46 11 -11 15 -37 15
-93 0 -73 2 -79 30 -106 l30 -29 1 65 c2 182 -3 208 -49 229 -21 9 -23 8 -19
-5z"/>
<path d="M3814 2901 c10 -16 56 -20 56 -5 0 9 -11 14 -31 14 -16 0 -28 -4 -25
-9z"/>
<path d="M9597 2903 c-3 -5 6 -16 19 -26 21 -16 25 -16 30 -3 3 8 3 20 -1 26
-7 12 -42 14 -48 3z"/>
<path d="M7198 2893 c7 -3 16 -2 19 1 4 3 -2 6 -13 5 -11 0 -14 -3 -6 -6z"/>
<path d="M9360 2878 c0 -16 5 -28 10 -28 13 0 13 20 0 40 -8 12 -10 9 -10 -12z"/>
<path d="M2390 2885 c0 -22 32 -55 53 -55 21 1 22 1 2 12 -11 6 -28 20 -37 32
-10 11 -18 16 -18 11z"/>
<path d="M3073 2883 c9 -2 23 -2 30 0 6 3 -1 5 -18 5 -16 0 -22 -2 -12 -5z"/>
<path d="M5284 2808 c3 -46 12 -126 20 -178 12 -87 11 -97 -4 -113 -16 -17
-19 -17 -66 8 -43 23 -49 24 -52 10 -4 -18 51 -81 71 -83 7 0 22 -3 34 -6 13
-3 35 4 55 18 l33 22 -2 105 c-3 153 -18 227 -53 267 -17 17 -33 32 -36 32 -4
0 -4 -37 0 -82z"/>
<path d="M949 2859 c-21 -18 -21 -20 -4 -13 11 4 48 10 83 12 75 4 73 22 -2
22 -40 0 -60 -5 -77 -21z"/>
<path d="M7560 2865 c-7 -8 -9 -15 -6 -15 4 0 14 7 22 15 9 8 11 15 6 15 -5 0
-15 -7 -22 -15z"/>
<path d="M9574 2848 c7 -18 18 -32 24 -31 6 2 9 -4 6 -11 -3 -9 3 -17 15 -21
12 -3 21 -11 21 -17 0 -6 -7 -7 -17 -3 -28 13 -83 18 -83 9 0 -5 31 -22 69
-39 38 -16 67 -33 65 -37 -3 -4 -12 -5 -22 -2 -9 3 -2 -3 16 -12 17 -10 32
-24 32 -31 0 -8 -5 -11 -12 -7 -7 4 -8 3 -4 -4 4 -7 15 -12 24 -13 9 0 12 -3
5 -5 -6 -3 -28 2 -48 10 -57 24 -55 19 5 -18 70 -44 87 -35 56 30 -32 68 -45
100 -48 124 -2 14 -9 25 -18 25 -9 0 -16 11 -18 29 -2 17 -7 25 -11 18 -5 -8
-15 -4 -33 13 -36 33 -41 31 -24 -7z"/>
<path d="M7784 2829 c-16 -22 -48 -63 -71 -90 -24 -27 -43 -52 -43 -55 0 -9
63 8 87 23 22 15 63 10 63 -8 0 -5 -14 -12 -31 -16 l-32 -6 24 -18 24 -18 5
-388 c3 -213 3 -522 0 -686 -3 -165 -3 -302 0 -307 15 -24 335 -190 366 -190
5 0 -25 19 -66 43 -112 65 -199 121 -200 129 0 4 17 -2 38 -13 l37 -21 -34 32
c-18 17 -31 34 -27 37 3 4 24 -12 47 -35 22 -23 42 -42 45 -42 12 0 1 29 -16
45 -11 10 -20 25 -20 33 0 9 -7 24 -17 34 -30 34 -5 30 27 -4 22 -23 30 -27
25 -13 -4 11 -8 27 -9 35 -2 8 -16 22 -31 30 -16 8 -36 21 -44 27 -9 7 -25 19
-36 27 -11 8 -17 17 -14 20 3 3 33 -15 67 -39 34 -25 62 -41 62 -36 0 6 -10
17 -22 25 -12 9 -17 16 -11 16 7 0 15 -5 18 -10 3 -6 11 -10 17 -10 6 0 4 8
-5 18 -22 24 -104 65 -116 58 -9 -6 -25 54 -16 62 3 3 5 -2 5 -11 0 -9 26 -28
66 -47 68 -34 93 -34 53 -1 -24 20 -24 20 -1 14 16 -4 22 -1 22 11 0 19 -35
34 -97 43 -25 3 -43 11 -43 19 0 7 -3 20 -6 29 -5 13 -2 16 17 15 72 -6 129 0
129 15 0 13 -12 14 -70 9 -46 -3 -70 -2 -70 5 0 6 6 8 13 6 6 -2 37 -1 67 3
41 5 56 11 58 25 3 16 -2 18 -35 13 l-38 -5 38 11 c40 12 47 24 20 31 -17 4
-17 5 0 6 19 1 24 21 5 21 -10 0 -10 2 0 9 9 5 12 24 10 56 l-3 48 -48 -41
c-26 -23 -57 -47 -68 -52 -31 -17 -22 4 11 23 29 17 100 97 100 112 0 4 -8 1
-17 -6 -10 -7 -7 -1 6 14 24 27 17 38 -9 15 -7 -7 -4 1 8 19 23 33 29 63 12
63 -5 0 -10 -5 -10 -11 0 -25 -114 -178 -125 -167 -4 4 3 17 15 30 30 32 85
127 100 174 7 21 17 45 23 52 7 8 7 16 0 23 -6 6 -20 -15 -41 -62 -38 -86 -51
-88 -18 -4 13 33 27 73 30 89 6 24 4 27 -10 22 -17 -6 -16 3 3 69 8 30 -10 8
-24 -28 l-13 -32 5 33 c3 17 7 47 10 65 l5 32 -14 -29 c-12 -26 -14 -27 -21
-10 -5 11 -9 35 -10 54 -3 116 -6 135 -15 120 -16 -26 -21 -5 -29 124 -7 108
-12 131 -32 160 -13 19 -28 32 -33 29 -5 -4 7 15 27 41 l36 48 -21 29 c-12 16
-25 29 -28 29 -3 0 -19 -18 -36 -41z m110 -706 c-10 -59 -23 -75 -24 -30 0 31
14 65 28 67 2 0 0 -17 -4 -37z m0 -87 c-3 -15 -8 -25 -11 -23 -2 3 -1 17 3 31
3 15 8 25 11 23 2 -3 1 -17 -3 -31z m40 12 c-14 -45 -54 -131 -59 -126 -3 3 4
27 15 54 12 27 25 59 30 72 5 12 12 22 15 22 4 0 3 -10 -1 -22z m-11 -113 c-3
-9 -8 -14 -10 -11 -3 3 -2 9 2 15 9 16 15 13 8 -4z m-23 -45 c-6 -11 -13 -20
-16 -20 -2 0 0 9 6 20 6 11 13 20 16 20 2 0 0 -9 -6 -20z m60 -24 c0 -2 -8
-10 -17 -17 -16 -13 -17 -12 -4 4 13 16 21 21 21 13z m-66 -88 c-3 -4 -9 -8
-15 -8 -5 0 -9 4 -9 8 0 5 7 9 15 9 8 0 12 -4 9 -9z m95 -52 c-14 -13 -109
-55 -109 -48 0 5 21 18 48 29 44 20 71 28 61 19z m-102 -347 c2 -12 -1 -18 -7
-14 -5 3 -10 16 -10 27 0 26 13 16 17 -13z m21 -94 c0 -14 -5 -22 -10 -19 -5
3 -7 12 -4 20 3 7 1 16 -4 19 -6 4 -10 11 -10 17 0 7 5 7 14 -1 7 -6 14 -22
14 -36z"/>
<path d="M1106 2837 c4 -10 -7 -14 -39 -14 -49 -1 -92 -20 -122 -53 -17 -19
-10 -17 38 10 48 27 64 31 97 26 38 -6 40 -5 40 19 0 14 -4 25 -10 25 -5 0 -7
-6 -4 -13z"/>
<path d="M2254 2829 c-9 -15 14 -29 49 -29 36 0 34 15 -4 29 -39 13 -36 13
-45 0z"/>
<path d="M3181 2805 c0 -22 7 -87 14 -145 l14 -105 -5 135 c-4 74 -10 139 -15
145 -5 5 -9 -7 -8 -30z"/>
<path d="M5537 2833 c-7 -10 8 -81 18 -91 6 -6 -4 89 -10 96 -2 2 -5 -1 -8 -5z"/>
<path d="M8535 2778 c-43 -35 -90 -72 -105 -83 -51 -38 -130 -107 -130 -113 0
-4 10 -19 23 -35 l22 -27 71 67 c38 38 85 92 103 121 41 64 65 82 111 82 27 0
43 -7 61 -27 l24 -26 -36 21 c-54 33 -73 29 -39 -9 16 -16 41 -55 55 -86 21
-48 113 -159 122 -149 2 2 -8 32 -21 68 -26 69 -22 88 16 88 17 0 17 -1 2 -25
-19 -30 -9 -33 14 -5 12 14 21 17 32 10 13 -8 12 -15 -10 -54 -27 -51 -22 -74
6 -27 10 17 21 31 24 31 3 0 14 -21 24 -46 l19 -46 -25 -52 -25 -51 -23 38
c-12 20 -25 37 -29 37 -4 0 -22 14 -39 31 -39 38 -40 25 -6 -63 19 -48 37 -75
65 -98 32 -25 40 -28 44 -16 3 9 7 22 9 30 3 8 0 16 -5 18 -6 2 -1 24 11 51
20 45 23 47 36 30 7 -10 14 -28 14 -40 0 -12 5 -25 11 -29 14 -8 6 31 -15 81
-61 143 -68 180 -36 190 11 3 20 10 20 15 0 19 -268 160 -303 160 -8 0 -49
-28 -92 -62z m254 -104 c-17 -20 -23 -18 -36 16 l-11 30 30 -16 c24 -12 27
-18 17 -30z"/>
<path d="M3910 2773 c0 -32 -3 -252 -7 -489 -3 -236 -3 -442 1 -457 15 -63 21
-15 20 180 0 115 2 273 6 353 7 175 0 470 -11 470 -5 0 -9 -26 -9 -57z"/>
<path d="M9365 2814 c-13 -10 -22 -11 -32 -3 -21 18 -16 -5 8 -35 13 -16 30
-26 43 -25 11 0 41 0 66 0 37 -2 42 -4 28 -14 -14 -10 -15 -15 -3 -46 27 -72
85 -259 85 -274 0 -8 -16 -38 -35 -66 -20 -28 -33 -51 -30 -51 7 0 260 227
294 263 12 14 20 30 16 36 -11 18 -25 12 -25 -11 0 -20 -94 -119 -162 -169
l-27 -20 13 38 c10 30 10 44 0 73 -7 19 -23 73 -35 120 -15 54 -32 94 -47 109
-19 19 -21 25 -10 32 10 7 7 14 -14 36 -25 25 -29 26 -53 13 -20 -10 -31 -11
-44 -3 -13 8 -22 7 -36 -3z"/>
<path d="M1690 2800 c8 -5 22 -9 30 -9 10 0 8 3 -5 9 -27 12 -43 12 -25 0z"/>
<path d="M2060 2779 c0 -28 81 -188 124 -244 15 -19 15 -19 14 10 -1 17 -8 39
-15 50 -20 30 -16 72 10 95 l22 21 -27 -6 c-22 -6 -28 -4 -28 9 0 9 -7 19 -15
22 -8 4 -15 12 -15 19 0 14 -46 55 -61 55 -5 0 -9 -14 -9 -31z"/>
<path d="M2490 2801 c0 -6 -12 -11 -26 -11 -59 0 -264 -121 -264 -156 0 -8 17
2 40 25 22 21 71 55 109 75 100 52 136 48 151 -19 5 -21 10 -248 12 -504 l3
-466 33 -37 c39 -43 35 -70 -5 -31 l-26 27 -26 -32 c-26 -32 -72 -44 -86 -22
-10 16 -21 12 -33 -12 -8 -18 -11 -19 -11 -5 -1 9 -7 17 -14 17 -8 0 -19 17
-25 38 l-11 37 5 -38 c3 -22 10 -49 16 -62 10 -22 15 -23 79 -20 38 1 72 -1
75 -6 3 -5 1 -9 -5 -9 -10 0 15 -86 32 -107 14 -19 88 -16 113 5 32 26 176
192 167 192 -4 0 -48 -42 -98 -94 -87 -92 -135 -125 -135 -93 0 8 11 22 25 31
19 13 24 23 20 37 -4 11 -2 26 5 33 7 9 11 75 11 192 -1 189 -6 263 -22 278
-5 6 -9 28 -8 50 0 36 1 38 10 18 5 -13 6 -29 3 -35 -5 -9 -4 -9 6 0 8 8 10
24 5 49 -5 28 -9 34 -16 23 -5 -9 -9 -10 -9 -2 0 6 5 15 10 18 6 4 10 12 9 18
-3 24 1 37 11 37 6 0 10 -6 10 -14 0 -8 4 -17 9 -21 6 -3 1 26 -10 65 -10 38
-19 83 -19 100 0 18 -5 29 -12 28 -9 -2 -13 33 -16 138 -3 126 -2 142 13 148
13 4 16 2 12 -9 -4 -8 -2 -17 3 -20 6 -4 10 0 10 7 0 9 3 9 10 -2 5 -8 10 -11
10 -7 0 16 -42 67 -50 62 -5 -3 -16 8 -24 24 -17 31 -76 80 -76 62z m107 -473
c-3 -7 -5 -2 -5 12 0 14 2 19 5 13 2 -7 2 -19 0 -25z m0 -430 c-2 -24 -4 -7
-4 37 0 44 2 63 4 43 2 -21 2 -57 0 -80z"/>
<path d="M9181 2796 c-9 -11 -9 -19 1 -35 24 -39 65 -16 46 25 -13 27 -30 31
-47 10z"/>
<path d="M2198 2793 c7 -3 16 -2 19 1 4 3 -2 6 -13 5 -11 0 -14 -3 -6 -6z"/>
<path d="M7526 2763 c-3 -21 -8 -159 -11 -308 -3 -148 -7 -299 -10 -335 -2
-36 -7 -159 -10 -275 -3 -115 -8 -278 -11 -361 -5 -102 -3 -157 4 -170 9 -16
11 -9 12 34 0 30 4 174 10 320 5 147 14 445 20 662 6 217 13 412 16 433 3 22
2 37 -4 37 -6 0 -13 -17 -16 -37z"/>
<path d="M1065 2771 c-22 -10 -49 -26 -60 -35 -11 -10 3 -6 32 9 66 32 93 32
33 0 -53 -28 -48 -32 12 -8 53 20 50 17 42 37 -8 20 -10 20 -59 -3z"/>
<path d="M1758 2783 c6 -2 18 -2 25 0 6 3 1 5 -13 5 -14 0 -19 -2 -12 -5z"/>
<path d="M2238 2783 c7 -3 16 -2 19 1 4 3 -2 6 -13 5 -11 0 -14 -3 -6 -6z"/>
<path d="M3034 2769 c-2 -3 21 -10 51 -16 55 -10 61 -8 47 13 -7 10 -91 14
-98 3z"/>
<path d="M5486 2745 c4 -22 11 -44 16 -50 10 -11 2 34 -13 70 -6 13 -6 5 -3
-20z"/>
<path d="M8050 2760 c-9 -17 -14 -19 -26 -9 -11 9 -14 8 -14 -4 0 -9 5 -19 10
-22 6 -4 7 -11 4 -17 -4 -6 1 -6 14 1 11 6 51 11 88 11 l68 0 -22 20 c-12 12
-35 20 -55 20 -18 0 -38 5 -44 11 -8 8 -14 5 -23 -11z"/>
<path d="M1670 2760 c0 -5 6 -7 14 -4 11 4 13 0 9 -15 -5 -19 -1 -21 36 -21
23 0 40 3 38 8 -3 4 6 8 20 9 18 1 22 -2 12 -7 -20 -13 -8 -19 24 -13 17 3 27
12 27 23 0 14 -12 18 -67 23 -93 9 -113 9 -113 -3z"/>
<path d="M2245 2750 c-3 -5 -2 -10 4 -10 5 0 13 5 16 10 3 6 2 10 -4 10 -5 0
-13 -4 -16 -10z"/>
<path d="M6730 2753 c-45 -16 -161 -78 -189 -100 -3 -2 3 -11 11 -20 16 -15
19 -15 45 2 133 88 203 106 239 63 10 -13 12 -18 5 -11 -9 8 -20 8 -35 2 -18
-8 -21 -18 -20 -65 0 -65 23 -99 49 -74 8 8 20 32 27 52 l13 37 48 -38 c27
-21 60 -56 73 -79 25 -42 42 -56 30 -27 -3 9 0 25 7 35 9 16 9 24 -3 44 -30
47 -80 96 -145 141 -65 44 -108 55 -155 38z m239 -150 c48 -36 64 -53 58 -59
-4 -4 -51 33 -106 82 -2 2 -1 4 4 4 4 0 24 -12 44 -27z"/>
<path d="M8200 2739 c0 -22 38 -27 58 -7 19 19 15 23 -23 25 -29 1 -35 -2 -35
-18z"/>
<path d="M9085 2705 l-40 -34 31 -1 32 0 4 -77 c3 -65 9 -85 31 -117 l27 -39
0 69 c0 38 3 79 6 91 5 17 -2 30 -26 52 -31 28 -31 29 -11 36 26 8 26 17 3 38
-16 15 -20 13 -57 -18z"/>
<path d="M1065 2712 c-16 -11 -37 -27 -45 -37 -11 -13 -1 -11 35 10 61 35 74
45 55 45 -8 0 -28 -8 -45 -18z"/>
<path d="M9392 2714 c-12 -8 -22 -20 -22 -26 0 -6 8 -4 18 5 9 9 29 20 42 26
22 8 22 10 5 10 -11 1 -31 -6 -43 -15z"/>
<path d="M9306 2707 c3 -10 9 -15 12 -12 3 3 0 11 -7 18 -10 9 -11 8 -5 -6z"/>
<path d="M1693 2693 c9 -2 25 -2 35 0 9 3 1 5 -18 5 -19 0 -27 -2 -17 -5z"/>
<path d="M1823 2689 c-25 -9 -30 -19 -10 -19 15 0 43 17 37 23 -3 3 -15 1 -27
-4z"/>
<path d="M8073 2676 c-15 -13 -26 -26 -23 -29 3 -3 21 8 40 24 19 16 29 29 23
29 -7 0 -25 -11 -40 -24z"/>
<path d="M8526 2678 c-12 -55 -25 -272 -17 -286 8 -15 15 34 27 216 6 86 1
121 -10 70z"/>
<path d="M1105 2678 c-4 -10 -11 -18 -16 -18 -6 0 -21 -7 -35 -17 -18 -11 -22
-18 -13 -24 25 -15 83 30 76 59 -4 16 -4 16 -12 0z"/>
<path d="M1725 2660 l-20 -9 20 0 c11 0 27 4 35 9 13 9 13 10 0 9 -8 0 -24 -4
-35 -9z"/>
<path d="M3035 2640 c3 -5 11 -10 16 -10 6 0 7 5 4 10 -3 6 -11 10 -16 10 -6
0 -7 -4 -4 -10z"/>
<path d="M6704 2619 c-104 -66 -124 -87 -124 -130 0 -21 5 -39 10 -39 15 0 90
48 123 79 28 25 67 90 67 111 0 18 -25 11 -76 -21z"/>
<path d="M1745 2630 c-13 -5 -14 -9 -5 -9 8 0 24 4 35 9 13 5 14 9 5 9 -8 0
-24 -4 -35 -9z"/>
<path d="M2656 2627 c3 -10 9 -15 12 -12 3 3 0 11 -7 18 -10 9 -11 8 -5 -6z"/>
<path d="M3786 2621 c6 -7 28 -14 50 -18 53 -8 33 13 -21 22 -30 6 -37 5 -29
-4z"/>
<path d="M7276 2494 c-3 -76 -7 -263 -7 -414 -1 -151 -1 -318 -2 -370 0 -77 4
-104 21 -143 25 -56 29 -86 5 -43 -12 23 -17 26 -24 15 -11 -20 1 -162 15
-180 27 -36 315 -203 340 -197 20 4 12 14 -51 65 -54 45 -68 51 -76 31 -5 -15
-67 38 -67 57 0 6 -20 25 -44 42 -33 24 -45 39 -50 68 -4 21 -4 286 0 589 l7
552 -30 34 -30 33 -7 -139z"/>
<path d="M6464 2606 c-18 -14 -18 -16 -2 -32 16 -16 18 -16 43 0 21 14 24 20
14 32 -15 18 -30 18 -55 0z"/>
<path d="M2592 2590 c0 -14 2 -19 5 -12 2 6 2 18 0 25 -3 6 -5 1 -5 -13z"/>
<path d="M1074 2578 l-19 -23 23 19 c21 18 27 26 19 26 -2 0 -12 -10 -23 -22z"/>
<path d="M1740 2590 c-9 -6 -10 -10 -3 -10 6 0 15 5 18 10 8 12 4 12 -15 0z"/>
<path d="M4717 2558 c4 -32 -3 -62 -26 -119 -33 -82 -182 -377 -212 -420 -24
-34 -83 -47 -108 -25 -10 9 -24 16 -32 16 -18 1 -68 29 -52 30 6 0 23 -4 37
-10 39 -15 31 -1 -9 16 -33 14 -48 34 -24 34 6 0 8 7 5 16 -4 12 -2 15 9 10 9
-3 15 0 15 9 0 9 -10 15 -24 15 -17 0 -23 -5 -22 -17 1 -12 -6 -18 -21 -18
-13 0 -28 -6 -35 -13 -10 -10 -8 -14 10 -18 12 -4 22 -12 22 -19 0 -7 25 -23
55 -36 35 -14 55 -29 55 -39 0 -19 97 -64 106 -48 3 5 17 7 30 4 16 -4 24 -2
25 6 1 7 2 18 3 23 0 6 13 30 27 55 54 91 116 206 134 250 11 25 22 47 25 50
3 3 11 19 19 35 7 17 19 44 27 60 7 17 16 42 18 58 9 52 17 67 38 67 11 0 18
5 16 13 -7 19 -68 57 -93 57 -21 0 -22 -4 -18 -42z"/>
<path d="M4844 2581 c15 -16 22 -18 42 -9 36 17 29 28 -18 28 -40 0 -41 -1
-24 -19z"/>
<path d="M6562 2580 c-12 -12 -22 -24 -22 -27 0 -4 11 4 25 17 23 22 29 30 22
30 -2 0 -13 -9 -25 -20z"/>
<path d="M8410 2551 c-30 -27 -53 -51 -50 -54 3 -3 31 19 63 49 72 67 62 71
-13 5z"/>
<path d="M7998 2577 c-5 -10 -8 -40 -7 -65 0 -41 1 -44 10 -22 6 13 9 42 7 65
-2 29 -5 35 -10 22z"/>
<path d="M1052 2517 c-34 -34 -62 -66 -62 -72 0 -5 17 8 38 30 20 23 50 50 65
63 16 12 27 26 25 31 -1 5 -31 -18 -66 -52z"/>
<path d="M2696 2565 c4 -8 8 -15 10 -15 2 0 4 7 4 15 0 8 -4 15 -10 15 -5 0
-7 -7 -4 -15z"/>
<path d="M6396 2571 c-3 -4 5 -18 18 -30 20 -19 24 -20 36 -6 10 12 10 18 0
30 -14 16 -46 20 -54 6z"/>
<path d="M9650 2560 c14 -11 30 -20 35 -20 6 0 -1 9 -15 20 -14 11 -29 20 -35
20 -5 0 1 -9 15 -20z"/>
<path d="M1787 2543 c-20 -14 -35 -28 -33 -30 4 -5 86 47 86 53 0 10 -18 2
-53 -23z"/>
<path d="M2761 2423 c0 -82 4 -157 9 -168 5 -12 9 45 9 148 1 105 -3 167 -9
167 -6 0 -10 -55 -9 -147z"/>
<path d="M9364 2330 c3 -135 9 -389 12 -565 5 -274 14 -381 28 -364 2 2 0 108
-4 234 -5 127 -11 385 -15 575 -4 215 -10 349 -17 355 -7 7 -8 -67 -4 -235z"/>
<path d="M4866 2524 c-24 -51 -12 -55 14 -5 11 23 17 41 12 41 -5 0 -16 -16
-26 -36z"/>
<path d="M3057 2522 c44 -37 93 -65 93 -53 0 6 -4 11 -9 11 -4 0 -28 16 -52
35 -51 41 -79 47 -32 7z"/>
<path d="M1110 2520 c0 -11 4 -20 9 -20 5 0 7 9 4 20 -3 11 -7 20 -9 20 -2 0
-4 -9 -4 -20z"/>
<path d="M6327 2493 c-27 -44 -29 -45 -67 -40 -46 6 -44 -7 4 -27 47 -19 46
-15 62 -536 6 -227 8 -235 76 -295 24 -21 69 -62 101 -92 56 -51 141 -103 171
-103 24 0 171 78 195 104 37 39 46 104 46 347 l0 226 -34 39 -34 38 7 -149 c6
-129 10 -153 26 -170 11 -12 20 -25 20 -31 0 -5 -7 0 -15 10 -8 11 -17 18 -19
15 -3 -2 -9 -57 -15 -122 -7 -75 -17 -133 -30 -161 -10 -25 -16 -48 -13 -52 4
-4 2 -4 -4 -1 -7 4 -38 -2 -70 -13 l-59 -19 -30 29 c-31 30 -65 40 -65 18 0
-18 -40 23 -67 69 -19 32 -26 64 -32 130 l-7 88 -8 -67 c-4 -38 -10 -68 -14
-68 -3 0 -17 12 -30 27 -21 25 -23 34 -18 98 4 43 3 62 -3 50 -8 -20 -19 82
-25 257 -5 122 11 112 19 -13 12 -174 23 -98 24 169 l1 232 -27 30 c-14 17
-29 30 -32 30 -3 0 -19 -21 -34 -47z m62 -110 l-1 -48 -10 34 c-5 18 -7 40 -4
47 10 27 16 14 15 -33z m-2 -145 c-2 -18 -4 -4 -4 32 0 36 2 50 4 33 2 -18 2
-48 0 -65z m-27 -161 c0 -5 -4 -5 -10 -2 -5 3 -10 14 -10 23 0 15 2 15 10 2 5
-8 10 -19 10 -23z"/>
<path d="M6530 2524 c0 -11 7 -29 15 -40 19 -26 20 1 0 36 -13 23 -14 23 -15
4z"/>
<path d="M6709 2513 c-19 -16 -47 -38 -64 -50 -34 -23 -135 -39 -135 -21 0 6
-3 9 -6 5 -3 -3 -3 -14 0 -24 5 -17 13 -19 54 -13 42 6 173 55 212 80 13 8 12
12 -6 31 l-21 21 -34 -29z"/>
<path d="M8406 2491 c-60 -61 -41 -75 21 -16 40 38 54 65 35 65 -4 0 -29 -22
-56 -49z"/>
<path d="M4108 2512 c-96 -3 -100 -7 -74 -59 8 -15 20 -55 27 -88 6 -33 25
-109 41 -170 103 -388 148 -564 148 -588 0 -26 -50 -130 -162 -335 -56 -101
-67 -107 -203 -105 -60 1 -137 6 -170 12 -33 5 -103 15 -155 22 -52 6 -107 18
-122 27 -33 19 -48 9 -25 -16 10 -10 17 -23 17 -29 0 -11 179 -67 188 -59 3 3
-9 9 -27 12 -48 10 -53 29 -5 20 221 -37 449 -51 477 -28 16 14 187 293 187
307 0 4 10 21 23 38 37 53 47 78 47 118 0 36 2 39 19 29 13 -6 22 -7 26 0 3 5
-5 12 -19 16 -23 5 -43 36 -38 56 1 4 -5 25 -13 45 -14 36 -69 220 -102 342
-12 44 -12 55 -1 62 10 7 9 9 -4 9 -21 0 -24 20 -6 38 6 6 8 15 4 19 -4 4 -11
2 -15 -5 -4 -8 -18 36 -34 105 -17 79 -22 120 -15 124 5 4 -9 18 -31 31 l-42
25 30 6 c39 8 69 -3 100 -37 14 -14 35 -26 47 -26 12 0 25 -6 27 -12 3 -7 6
-3 6 9 1 15 15 32 43 49 40 26 41 27 20 35 -13 5 -46 8 -75 6 -29 -1 -91 -3
-139 -5z"/>
<path d="M5619 2489 c-11 -21 -10 -69 7 -374 4 -60 10 -130 14 -155 7 -41 8
-37 11 40 4 111 0 231 -16 411 -6 70 6 96 39 83 9 -3 16 -1 16 5 0 21 -59 12
-71 -10z"/>
<path d="M5730 2502 c0 -4 7 -18 16 -30 8 -12 12 -22 9 -22 -4 0 7 -13 25 -30
18 -16 38 -30 44 -30 14 0 71 68 71 84 0 6 -18 16 -40 22 -46 14 -125 18 -125
6z"/>
<path d="M5929 2495 c-16 -16 -15 -65 1 -65 5 0 12 -10 15 -21 l7 -21 21 20
c18 18 19 27 11 59 -10 42 -31 52 -55 28z"/>
<path d="M6815 2488 c4 -23 2 -28 -15 -28 -19 0 -19 -2 -6 -22 8 -13 21 -68
30 -122 18 -107 26 -126 63 -165 l25 -26 -7 95 c-9 139 -29 220 -58 246 -13
11 -27 27 -31 35 -3 8 -4 2 -1 -13z"/>
<path d="M8980 2501 c0 -6 4 -13 10 -16 6 -3 7 1 4 9 -7 18 -14 21 -14 7z"/>
<path d="M6072 2468 c-7 -23 -10 -27 -11 -13 -1 13 -7 6 -16 -20 -15 -42 -12
-63 4 -24 8 20 10 21 10 5 1 -33 18 -5 26 42 8 50 2 55 -13 10z"/>
<path d="M1065 2477 c-39 -45 -105 -134 -105 -141 0 -5 16 13 37 40 20 27 50
64 66 82 17 17 27 32 21 32 -5 -1 -14 -6 -19 -13z"/>
<path d="M7073 2450 c22 -185 28 -294 25 -492 -2 -124 0 -224 3 -222 13 7 23
189 20 359 -2 178 -23 372 -42 390 -8 7 -10 -3 -6 -35z"/>
<path d="M8279 2403 c-2 -118 -6 -200 -18 -373 -19 -252 -20 -244 47 -326 85
-106 182 -212 199 -218 8 -3 40 -8 71 -11 52 -4 54 -4 22 6 -19 6 -44 19 -55
29 -27 25 -59 80 -46 80 5 0 17 -13 27 -29 19 -32 51 -53 114 -75 61 -21 79
-7 130 94 34 67 39 84 29 101 -15 28 -23 16 -44 -64 -21 -78 -47 -117 -78
-117 -12 0 -39 19 -63 46 -25 26 -48 43 -54 39 -17 -11 -81 27 -75 44 4 10 -1
12 -16 8 -16 -4 -19 -3 -10 6 17 17 13 29 -8 18 -18 -10 -31 -6 -31 11 0 5 4
7 9 4 11 -7 41 3 41 14 0 14 -32 21 -47 9 -7 -7 -16 -9 -19 -6 -8 8 35 29 45
23 8 -6 24 34 17 42 -2 2 -22 -8 -45 -22 -44 -28 -51 -31 -51 -17 0 5 20 22
45 38 25 15 45 32 45 36 0 5 -14 -1 -31 -13 -16 -12 -33 -19 -37 -15 -4 3 0
10 9 15 22 13 67 53 49 44 -8 -4 -34 -21 -57 -37 -46 -33 -73 -31 -73 5 0 17
13 30 48 50 62 36 109 74 100 83 -4 4 -26 -8 -50 -27 -24 -20 -56 -43 -71 -53
l-28 -18 4 29 c3 19 10 29 20 28 9 -1 15 2 12 6 -6 10 20 32 32 28 16 -5 83
46 83 63 0 32 -14 27 -72 -26 -33 -30 -63 -55 -68 -55 -5 0 -8 18 -7 39 1 28
7 43 23 52 37 23 115 100 112 110 -2 5 -21 -5 -43 -23 -23 -20 -36 -26 -33
-16 8 21 -19 33 -38 17 -12 -9 -14 -3 -14 39 0 28 4 53 9 56 5 4 7 -3 4 -15
-5 -17 6 -12 56 26 64 49 76 65 68 87 -3 8 -9 3 -15 -12 -10 -27 -31 -46 -72
-69 -21 -11 -20 -8 10 25 32 35 28 34 -26 -6 -11 -8 9 13 45 47 36 34 68 57
69 52 2 -5 8 -6 13 -3 16 9 219 -29 219 -41 0 -14 191 -60 213 -52 25 10 121
157 109 169 -7 7 -12 2 -17 -13 -12 -36 -84 -139 -98 -139 -25 1 -111 28 -89
29 12 1 22 4 22 7 0 15 -48 43 -75 44 -55 0 -200 21 -218 31 -13 7 -23 6 -33
-2 -8 -6 -23 -9 -34 -6 -16 4 -38 -10 -86 -56 -57 -53 -65 -58 -62 -37 3 28
27 51 43 43 5 -4 7 -2 2 2 -4 5 12 29 35 53 24 25 36 41 28 37 -12 -7 -13 -6
-4 6 15 19 26 79 15 79 -5 0 -32 -21 -60 -46 -33 -29 -51 -40 -51 -31 0 9 5
19 10 22 6 3 10 11 10 16 0 6 -4 8 -9 5 -5 -3 -23 10 -40 29 -17 19 -33 35
-36 35 -3 0 -6 -39 -6 -87z m81 -388 c-7 -8 -17 -15 -23 -15 -5 0 -2 9 8 20
21 23 35 19 15 -5z m14 -269 c-10 -8 -21 -12 -24 -10 -5 6 21 24 34 24 6 0 1
-6 -10 -14z"/>
<path d="M1745 2455 c-16 -13 -25 -24 -19 -25 6 0 21 11 34 25 30 32 24 32
-15 0z"/>
<path d="M5186 2465 c9 -22 74 -88 74 -75 0 15 -59 90 -71 90 -4 0 -6 -7 -3
-15z"/>
<path d="M5696 2465 c4 -8 11 -15 16 -15 6 0 5 6 -2 15 -7 8 -14 15 -16 15 -2
0 -1 -7 2 -15z"/>
<path d="M7430 2479 c0 -4 9 -26 20 -50 11 -24 20 -36 20 -27 0 10 -9 32 -20
50 -11 18 -20 30 -20 27z"/>
<path d="M6101 2454 c0 -11 3 -14 6 -6 3 7 2 16 -1 19 -3 4 -6 -2 -5 -13z"/>
<path d="M1836 2452 c-2 -4 -1 -14 5 -22 7 -12 9 -10 9 8 0 23 -5 28 -14 14z"/>
<path d="M9118 1972 l-3 -478 -28 -43 c-22 -34 -26 -45 -16 -57 17 -20 47 -17
61 6 18 28 31 25 25 -6 -4 -23 -2 -25 19 -21 14 2 25 -1 28 -9 3 -8 14 -14 25
-14 15 0 19 5 14 16 -4 12 -7 13 -14 3 -6 -11 -9 -10 -12 1 -2 8 -11 36 -20
62 -13 40 -17 121 -21 498 -4 439 -5 451 -26 485 -12 19 -23 35 -25 35 -3 0
-6 -215 -7 -478z m66 -534 c10 -40 6 -54 -9 -28 -8 14 -14 31 -15 38 0 21 17
13 24 -10z"/>
<path d="M1084 2413 c-33 -46 -37 -60 -9 -29 20 21 29 26 35 17 10 -17 24 4
16 24 -8 22 -20 18 -42 -12z"/>
<path d="M6146 2405 c-49 -45 -217 -115 -277 -115 -40 0 -8 29 56 51 16 6 17
7 3 8 -9 1 -24 11 -32 23 -15 21 -17 22 -44 6 -19 -11 -32 -14 -44 -7 -29 16
-34 -33 -9 -75 19 -31 25 -34 49 -27 15 5 61 17 102 27 41 9 100 30 130 46 65
34 132 88 109 88 -9 0 -28 -11 -43 -25z"/>
<path d="M1807 2413 c-4 -3 -7 -11 -7 -17 0 -6 5 -5 12 2 6 6 9 14 7 17 -3 3
-9 2 -12 -2z"/>
<path d="M3204 2225 c10 -333 18 -479 28 -504 5 -13 10 -22 11 -20 2 2 0 74
-4 159 -4 85 -10 232 -14 325 -7 194 -9 223 -20 233 -4 4 -5 -83 -1 -193z"/>
<path d="M8000 2409 c0 -5 5 -7 10 -4 6 3 10 8 10 11 0 2 -4 4 -10 4 -5 0 -10
-5 -10 -11z"/>
<path d="M2626 2383 c9 -36 24 -66 31 -60 7 8 -19 87 -29 87 -5 0 -5 -12 -2
-27z"/>
<path d="M5195 2385 c3 -16 12 -83 19 -147 12 -106 17 -122 47 -168 53 -78 52
-83 23 145 -15 118 -16 121 -55 160 l-39 40 5 -30z"/>
<path d="M2950 2304 l0 -99 35 -39 c20 -21 51 -61 70 -89 43 -63 45 -51 5 22
-17 30 -30 61 -30 70 1 12 3 11 11 -4 18 -32 63 -98 79 -116 8 -8 20 -24 26
-35 7 -10 14 -17 17 -14 3 3 -14 39 -39 79 -24 41 -42 76 -40 79 3 2 18 -16
33 -42 28 -46 54 -65 32 -23 -29 55 -103 159 -107 149 -2 -6 6 -26 19 -44 l22
-33 -32 34 c-25 26 -31 40 -29 67 l3 34 65 -89 c36 -50 66 -86 68 -81 6 16
-127 192 -139 184 -5 -3 -9 -1 -9 4 0 5 -13 26 -30 47 l-30 38 0 -99z"/>
<path d="M1756 2346 l-28 -41 32 31 c18 18 31 36 29 42 -2 5 -17 -9 -33 -32z"/>
<path d="M6557 2383 c-4 -3 -6 -18 -6 -32 1 -21 2 -22 6 -6 3 11 10 26 15 33
11 12 -3 18 -15 5z"/>
<path d="M3027 2348 c5 -7 33 -44 63 -83 30 -38 55 -72 57 -74 2 -2 6 -1 10 3
4 4 3 10 -2 14 -6 4 -35 40 -64 80 -30 39 -59 72 -64 72 -6 0 -6 -5 0 -12z"/>
<path d="M4200 2349 c0 -5 5 -7 10 -4 6 3 10 8 10 11 0 2 -4 4 -10 4 -5 0 -10
-5 -10 -11z"/>
<path d="M1121 2343 c-1 -7 -22 -41 -47 -75 -25 -35 -50 -71 -55 -80 -16 -31
0 -20 23 16 13 18 38 55 56 80 18 26 31 52 29 59 -4 9 -6 9 -6 0z"/>
<path d="M3814 2326 c11 -9 27 -16 35 -16 21 0 2 16 -29 24 -24 7 -24 6 -6 -8z"/>
<path d="M5480 2337 c0 -8 79 -156 93 -175 41 -53 -27 88 -78 161 -8 12 -15
18 -15 14z"/>
<path d="M2055 2314 c-49 -8 -100 -13 -112 -11 -13 2 -23 1 -23 -4 0 -14 -41
-21 -55 -9 -21 17 -19 -3 3 -29 17 -21 19 -21 110 -8 51 8 128 15 170 16 l77
2 -55 -56 -55 -56 25 -19 c29 -23 41 -24 59 -7 8 6 6 0 -4 -15 -9 -15 -21 -26
-25 -23 -5 3 -14 -17 -21 -45 -7 -27 -16 -50 -21 -50 -11 0 -10 47 2 69 7 14
3 22 -20 39 l-29 22 -12 -22 c-29 -54 9 -296 83 -528 26 -83 33 -90 77 -89 21
1 28 3 16 6 -29 7 -42 22 -28 31 9 5 8 22 -3 67 -8 33 -23 99 -34 147 -10 47
-21 97 -24 110 -3 12 -3 17 0 11 11 -24 24 -13 20 17 -2 16 2 38 9 47 8 11 10
22 5 28 -8 10 2 80 17 115 3 8 5 21 4 27 -1 8 4 10 14 7 8 -3 15 -12 15 -20 0
-8 4 -14 9 -14 5 0 12 35 15 78 9 124 8 121 41 127 94 18 164 38 159 46 -8 14
-309 9 -409 -7z m97 -336 c-8 -8 -9 -4 -5 13 4 13 8 18 11 10 2 -7 -1 -18 -6
-23z"/>
<path d="M4240 2311 c0 -12 29 -35 36 -28 11 10 -5 37 -21 37 -8 0 -15 -4 -15
-9z"/>
<path d="M8898 2290 c-9 -17 -13 -30 -8 -30 11 0 32 38 28 50 -2 5 -11 -4 -20
-20z"/>
<path d="M1808 2293 c-9 -10 -24 -34 -33 -53 -25 -49 3 -24 33 29 25 44 25 52
0 24z"/>
<path d="M6545 2198 c-8 -132 -1 -563 10 -595 4 -13 12 -23 17 -23 6 0 7 9 3
23 -4 12 -9 175 -12 362 -2 187 -6 341 -8 343 -2 2 -6 -48 -10 -110z"/>
<path d="M8519 2263 c-11 -13 -13 -69 -11 -287 2 -256 10 -336 33 -336 11 0
11 -4 -5 50 -9 33 -13 114 -12 303 1 243 2 260 21 273 15 11 16 14 3 14 -8 0
-22 -7 -29 -17z"/>
<path d="M2335 2243 c-23 -25 -25 -36 -25 -110 0 -46 3 -83 8 -83 4 0 7 33 7
73 0 58 4 79 23 110 28 44 23 48 -13 10z"/>
<path d="M4212 2265 c3 -3 14 -7 24 -9 11 -3 28 -7 39 -11 20 -7 20 -6 1 9
-18 14 -77 24 -64 11z"/>
<path d="M4746 2253 c-6 -14 -5 -15 5 -6 7 7 10 15 7 18 -3 3 -9 -2 -12 -12z"/>
<path d="M5572 2240 c7 -10 14 -18 15 -16 6 6 -9 36 -18 36 -5 0 -4 -9 3 -20z"/>
<path d="M5466 2238 c45 -77 119 -179 122 -169 2 7 -5 22 -15 34 -11 12 -39
50 -62 85 -23 34 -44 62 -47 62 -3 0 -2 -6 2 -12z"/>
<path d="M562 2205 c-30 -7 -59 -18 -65 -24 -6 -6 -21 -11 -34 -11 -24 0 -31
-23 -14 -49 6 -10 13 -6 27 18 10 17 24 29 30 27 12 -4 161 38 172 49 10 9
-62 4 -116 -10z"/>
<path d="M847 2050 c7 -185 3 -200 -47 -200 -31 0 -98 43 -204 129 -96 78
-106 85 -106 72 0 -16 67 -88 123 -133 27 -21 44 -38 37 -38 -10 0 -106 82
-122 105 -4 5 -10 6 -14 3 -12 -13 109 -122 186 -167 41 -25 83 -52 93 -60 15
-12 22 -13 38 -3 18 12 19 11 10 -6 -7 -12 -10 -145 -11 -359 0 -186 -3 -354
-6 -372 -8 -37 -44 -68 -119 -102 -48 -22 -49 -23 -21 -27 28 -3 141 31 160
49 6 5 20 9 33 9 19 0 21 3 14 23 -5 12 -5 32 0 45 5 13 9 183 9 379 1 306 -2
359 -15 379 -12 19 -20 22 -33 15 -12 -6 -32 -1 -67 15 -27 13 -41 21 -30 18
56 -19 94 -16 119 10 26 25 26 27 26 179 0 141 -2 157 -21 181 -11 14 -24 26
-29 26 -5 0 -6 -74 -3 -170z"/>
<path d="M1914 2198 l-19 -21 28 18 c28 18 33 25 19 25 -5 0 -17 -10 -28 -22z"/>
<path d="M8414 2178 c-53 -56 -74 -85 -55 -73 9 5 19 2 28 -10 12 -18 15 -17
47 14 29 28 33 37 26 61 -5 18 -4 32 3 39 7 7 7 11 1 11 -5 0 -28 -19 -50 -42z"/>
<path d="M4717 2203 c-4 -3 -7 -11 -7 -17 0 -6 5 -5 12 2 6 6 9 14 7 17 -3 3
-9 2 -12 -2z"/>
<path d="M5526 2197 c3 -10 9 -15 12 -12 3 3 0 11 -7 18 -10 9 -11 8 -5 -6z"/>
<path d="M4215 2175 c21 -17 86 -37 94 -30 12 12 -45 45 -78 45 -34 -1 -35 -1
-16 -15z"/>
<path d="M4696 2153 c-6 -14 -5 -15 5 -6 7 7 10 15 7 18 -3 3 -9 -2 -12 -12z"/>
<path d="M5330 2166 c0 -2 8 -10 18 -17 15 -13 16 -12 3 4 -13 16 -21 21 -21
13z"/>
<path d="M2950 1926 c0 -229 0 -229 -25 -262 -14 -18 -25 -34 -25 -37 0 -2 51
-3 113 -2 183 4 201 5 194 11 -3 4 -57 6 -119 5 -106 0 -112 0 -90 15 12 9 22
23 22 30 0 8 4 14 9 14 6 0 6 12 0 32 -11 41 -12 81 -1 74 5 -3 15 -30 22 -62
12 -48 31 -76 45 -62 7 7 -17 88 -26 88 -5 0 -9 8 -9 18 0 14 2 15 10 2 26
-41 -7 86 -42 157 -6 11 -8 27 -6 35 3 7 15 -11 28 -39 12 -29 26 -51 30 -48
4 2 19 -32 35 -75 15 -44 32 -80 37 -80 9 0 5 26 -12 65 -30 74 -50 129 -46
132 3 3 33 -63 76 -170 l9 -22 0 23 c1 12 -3 30 -8 40 -4 9 -28 59 -52 110
-25 53 -61 112 -84 135 -22 23 -50 56 -62 72 l-22 30 -1 -229z m101 77 c5 -14
8 -28 5 -30 -4 -5 -36 50 -36 62 0 14 22 -9 31 -32z m27 -78 c-3 -3 -9 2 -12
12 -6 14 -5 15 5 6 7 -7 10 -15 7 -18z m-18 -103 c0 -15 -2 -15 -10 -2 -13 20
-13 33 0 25 6 -3 10 -14 10 -23z"/>
<path d="M4229 2120 c13 -11 28 -20 35 -20 6 1 0 10 -13 20 -13 11 -28 20 -35
20 -6 -1 0 -10 13 -20z"/>
<path d="M2760 1959 c0 -99 5 -180 10 -189 7 -10 8 46 4 170 -3 102 -8 187
-10 189 -2 2 -4 -74 -4 -170z"/>
<path d="M4640 2050 c-23 -46 -57 -112 -76 -148 -45 -84 -37 -93 9 -10 48 86
117 231 112 236 -2 2 -22 -33 -45 -78z"/>
<path d="M1086 2044 c-34 -66 -29 -84 5 -19 13 25 27 45 30 45 3 0 6 7 6 15 0
28 -13 15 -41 -41z"/>
<path d="M1880 2089 c0 -5 5 -7 10 -4 6 3 10 8 10 11 0 2 -4 4 -10 4 -5 0 -10
-5 -10 -11z"/>
<path d="M4390 2085 c0 -8 4 -15 10 -15 5 0 7 7 4 15 -4 8 -8 15 -10 15 -2 0
-4 -7 -4 -15z"/>
<path d="M5435 2050 c21 -22 41 -40 44 -40 3 0 -13 18 -34 40 -21 22 -41 40
-44 40 -3 0 13 -18 34 -40z"/>
<path d="M2240 2038 c0 -17 2 -18 15 -8 8 7 15 14 15 15 0 2 -7 5 -15 9 -10 4
-15 -1 -15 -16z"/>
<path d="M2322 2015 c0 -16 2 -22 5 -12 2 9 2 23 0 30 -3 6 -5 -1 -5 -18z"/>
<path d="M5245 2013 c2 -15 6 -66 9 -113 3 -47 9 -107 12 -133 6 -39 4 -47
-10 -47 -9 0 -25 9 -36 20 -27 27 -33 25 -25 -7 6 -24 63 -113 72 -113 2 0 2
4 -2 10 -3 5 8 16 24 25 55 28 62 68 36 214 -10 58 -23 97 -41 123 -35 50 -45
55 -39 21z"/>
<path d="M2225 1973 c-3 -21 -8 -49 -11 -63 -4 -16 -2 -22 4 -15 11 11 27 115
18 115 -3 0 -8 -17 -11 -37z"/>
<path d="M3100 2001 c0 -6 4 -13 10 -16 6 -3 7 1 4 9 -7 18 -14 21 -14 7z"/>
<path d="M1574 1983 c1 -12 -7 -19 -24 -21 -14 -2 -36 -12 -50 -23 -21 -17
-22 -19 -3 -10 12 6 35 11 51 11 26 0 30 -4 36 -37 3 -21 6 -227 6 -458 0
-385 -2 -427 -20 -498 -21 -84 -40 -118 -103 -184 -23 -24 -38 -45 -34 -49 3
-3 116 -7 251 -8 134 0 238 3 230 7 -8 4 -97 9 -199 10 -179 2 -184 3 -162 20
14 11 32 16 50 12 30 -5 36 9 10 23 -10 6 -14 16 -9 27 5 15 12 12 46 -19 38
-34 60 -45 60 -29 0 4 -20 26 -44 48 -40 37 -42 42 -34 73 11 42 20 40 42 -8
25 -57 94 -111 148 -116 37 -3 40 -2 24 9 -11 6 -31 23 -44 37 -14 14 -22 19
-18 13 4 -7 3 -13 -2 -13 -5 0 -15 13 -22 30 -7 16 -16 27 -21 24 -5 -3 -8 -1
-7 4 2 5 -13 36 -32 68 l-35 58 -5 479 -5 479 -33 29 c-37 33 -50 36 -48 12z"/>
<path d="M1835 1990 c-3 -5 -1 -10 4 -10 6 0 11 5 11 10 0 6 -2 10 -4 10 -3 0
-8 -4 -11 -10z"/>
<path d="M2262 1980 c0 -14 2 -19 5 -12 2 6 2 18 0 25 -3 6 -5 1 -5 -13z"/>
<path d="M5399 1930 c35 -33 69 -60 75 -60 13 1 -89 95 -119 111 -11 5 9 -17
44 -51z"/>
<path d="M5460 1972 c6 -13 14 -21 18 -18 3 4 -2 14 -12 24 -18 16 -18 16 -6
-6z"/>
<path d="M3120 1967 c0 -11 39 -87 45 -87 6 0 -15 49 -32 75 -7 11 -13 16 -13
12z"/>
<path d="M5547 1953 c-14 -13 -6 -20 18 -15 19 3 27 -1 34 -20 5 -13 16 -30
25 -37 9 -7 16 -23 16 -35 1 -17 2 -18 10 -5 6 10 1 31 -16 67 -21 44 -29 52
-53 52 -15 0 -31 -3 -34 -7z"/>
<path d="M1076 1934 c-9 -24 -2 -26 12 -4 7 11 8 20 3 20 -5 0 -12 -7 -15 -16z"/>
<path d="M1391 1924 c-18 -8 -31 -17 -28 -20 5 -6 67 23 67 31 0 6 3 7 -39
-11z"/>
<path d="M2331 1914 c0 -11 3 -14 6 -6 3 7 2 16 -1 19 -3 4 -6 -2 -5 -13z"/>
<path d="M4480 1906 c0 -2 7 -7 16 -10 8 -3 12 -2 9 4 -6 10 -25 14 -25 6z"/>
<path d="M2241 1884 c0 -11 3 -14 6 -6 3 7 2 16 -1 19 -3 4 -6 -2 -5 -13z"/>
<path d="M4290 1895 c0 -3 27 -18 60 -35 33 -17 60 -25 60 -20 0 6 -25 22 -55
36 -58 25 -65 27 -65 19z"/>
<path d="M8413 1839 c-24 -17 -43 -32 -43 -35 0 -8 80 38 92 53 18 22 -5 14
-49 -18z"/>
<path d="M5530 1833 c0 -16 -3 -71 -6 -123 -3 -52 -1 -138 4 -190 8 -87 9 -77
11 123 0 119 -1 217 -4 217 -3 0 -5 -12 -5 -27z"/>
<path d="M1143 1824 c-13 -14 -23 -31 -23 -37 0 -13 49 43 50 56 0 11 -3 9
-27 -19z"/>
<path d="M1295 1840 c-13 -6 -15 -9 -5 -9 8 0 22 4 30 9 18 12 2 12 -25 0z"/>
<path d="M5360 1831 c14 -11 45 -30 70 -42 25 -12 40 -24 33 -26 -6 -2 -31 5
-55 17 -42 21 -43 21 -19 0 25 -22 21 -26 -10 -10 -10 6 -19 7 -19 2 0 -9 44
-32 61 -32 6 0 7 5 3 12 -4 6 -3 8 4 4 6 -3 9 -15 7 -26 -2 -12 0 -18 6 -14 6
3 16 -1 22 -11 12 -15 13 -14 14 4 1 13 -4 21 -15 22 -14 0 -15 2 -2 7 34 16
19 38 -53 75 -39 21 -61 29 -47 18z"/>
<path d="M8810 1824 c-13 -34 -13 -67 1 -98 l12 -25 29 32 30 31 -21 43 c-24
49 -37 54 -51 17z"/>
<path d="M3720 1833 c0 -13 29 -38 35 -31 3 3 -4 13 -15 23 -11 10 -20 13 -20
8z"/>
<path d="M4460 1830 c0 -5 -7 -10 -15 -10 -8 0 -15 -4 -15 -10 0 -14 23 -13
38 2 15 15 16 28 2 28 -5 0 -10 -4 -10 -10z"/>
<path d="M8063 1770 c0 -41 2 -58 4 -37 2 20 2 54 0 75 -2 20 -4 3 -4 -38z"/>
<path d="M1219 1810 c-21 -17 -21 -19 -4 -13 11 3 29 12 40 20 16 10 16 13 3
13 -9 0 -26 -9 -39 -20z"/>
<path d="M4505 1790 c-9 -16 -13 -30 -11 -30 3 0 12 14 21 30 9 17 13 30 11
30 -3 0 -12 -13 -21 -30z"/>
<path d="M4348 1769 c40 -23 76 -38 79 -35 8 7 13 4 -68 44 -92 45 -99 40 -11
-9z"/>
<path d="M4409 1780 c12 -11 28 -17 33 -14 6 4 0 13 -13 20 -36 20 -47 16 -20
-6z"/>
<path d="M2302 1760 c0 -14 2 -19 5 -12 2 6 2 18 0 25 -3 6 -5 1 -5 -13z"/>
<path d="M1110 1760 c0 -5 5 -10 11 -10 5 0 7 5 4 10 -3 6 -8 10 -11 10 -2 0
-4 -4 -4 -10z"/>
<path d="M3110 1735 c0 -11 5 -27 10 -35 8 -12 10 -12 10 5 0 11 -5 27 -10 35
-8 12 -10 12 -10 -5z"/>
<path d="M7042 1720 c0 -14 2 -19 5 -12 2 6 2 18 0 25 -3 6 -5 1 -5 -13z"/>
<path d="M8873 1717 c-24 -27 -57 -77 -50 -77 8 0 80 91 75 96 -3 2 -14 -6
-25 -19z"/>
<path d="M2768 1718 c-42 -15 -34 -24 17 -20 46 4 58 15 29 26 -9 3 -16 6 -17
5 -1 0 -14 -5 -29 -11z"/>
<path d="M4368 1711 c39 -25 42 -25 42 -6 0 8 -9 15 -19 15 -11 0 -28 3 -38 6
-10 3 -3 -3 15 -15z"/>
<path d="M4452 1698 c-11 -18 -33 -58 -50 -88 -16 -30 -41 -76 -55 -101 -14
-25 -37 -66 -50 -90 -74 -136 -211 -338 -230 -340 -52 -4 -245 15 -364 36 -40
7 -71 9 -68 5 5 -9 81 -24 225 -44 216 -32 190 -34 241 21 67 72 399 633 375
633 -3 0 -13 -15 -24 -32z"/>
<path d="M1121 1704 c0 -11 3 -14 6 -6 3 7 2 16 -1 19 -3 4 -6 -2 -5 -13z"/>
<path d="M4335 1686 c11 -8 25 -20 32 -26 7 -5 14 -6 17 -1 3 4 -7 14 -22 22
-42 20 -49 22 -27 5z"/>
<path d="M5374 1691 c4 -6 21 -14 39 -20 18 -5 40 -12 50 -16 10 -4 17 -3 17
4 0 14 -27 27 -73 35 -26 5 -37 4 -33 -3z"/>
<path d="M8062 1660 c0 -19 2 -27 5 -17 2 9 2 25 0 35 -3 9 -5 1 -5 -18z"/>
<path d="M7075 1652 c-3 -17 -15 -40 -26 -53 -10 -12 -19 -27 -19 -32 0 -6 11
5 25 24 26 35 42 76 32 85 -3 3 -8 -8 -12 -24z"/>
<path d="M1097 1605 c-16 -31 -26 -62 -24 -69 3 -6 14 11 26 38 26 58 37 57
17 -2 -9 -23 -11 -42 -6 -42 17 0 33 75 23 105 -9 28 -9 28 -36 -30z"/>
<path d="M5385 1650 c11 -5 33 -14 49 -20 52 -19 19 -22 -55 -6 -39 9 -74 15
-76 12 -2 -2 4 -6 14 -9 90 -24 113 -28 134 -25 13 1 25 10 27 19 2 12 -7 18
-37 23 -21 3 -48 8 -58 11 -14 5 -14 4 2 -5z"/>
<path d="M8060 1440 c0 -101 3 -180 6 -177 8 8 7 347 -1 355 -3 3 -5 -77 -5
-178z"/>
<path d="M1842 1580 c0 -14 2 -19 5 -12 2 6 2 18 0 25 -3 6 -5 1 -5 -13z"/>
<path d="M2620 1585 c-8 -9 -8 -15 -2 -15 12 0 26 19 19 26 -2 2 -10 -2 -17
-11z"/>
<path d="M2358 1559 c-36 -19 -47 -29 -30 -29 4 0 25 11 47 25 48 29 36 32
-17 4z"/>
<path d="M5300 1553 c0 -14 35 -23 90 -23 61 0 40 18 -33 26 -36 4 -57 3 -57
-3z"/>
<path d="M5465 1547 c-4 -10 -5 -21 -1 -24 10 -10 18 4 13 24 -4 17 -4 17 -12
0z"/>
<path d="M7945 1540 c33 -11 65 -18 70 -16 15 6 -41 25 -88 31 -39 4 -37 3 18
-15z"/>
<path d="M5226 1493 c7 -36 52 -115 75 -128 6 -4 8 3 4 19 -3 14 -7 38 -11 52
-6 30 -51 94 -66 94 -5 0 -6 -16 -2 -37z"/>
<path d="M9301 1482 c14 -74 29 -112 45 -112 18 0 18 8 0 26 -8 8 -20 39 -26
69 -14 67 -31 83 -19 17z"/>
<path d="M5305 1492 c13 -13 163 -23 171 -11 3 5 -8 9 -24 9 -16 0 -58 3 -93
6 -44 5 -61 3 -54 -4z"/>
<path d="M6830 1449 c-41 -22 -64 -37 -50 -33 29 7 150 64 150 70 0 11 -32 -1
-100 -37z"/>
<path d="M7405 1450 c15 -89 18 -100 26 -100 10 0 5 26 -17 93 -13 39 -14 39
-9 7z"/>
<path d="M1061 1454 c0 -11 3 -14 6 -6 3 7 2 16 -1 19 -3 4 -6 -2 -5 -13z"/>
<path d="M3400 1463 c0 -5 6 -16 13 -24 10 -13 22 -13 77 -4 l65 12 -60 7
c-33 4 -68 10 -77 12 -10 3 -18 1 -18 -3z"/>
<path d="M3338 1422 c-20 -21 -74 -120 -82 -148 -6 -18 3 -25 64 -53 86 -38
105 -40 57 -3 -50 37 -55 61 -23 118 29 52 32 76 13 93 -11 8 -18 7 -29 -7z"/>
<path d="M5400 1420 c-12 -8 -11 -10 8 -10 12 0 22 5 22 10 0 13 -11 13 -30 0z"/>
<path d="M3429 1403 c-13 -16 -12 -17 4 -4 9 7 17 15 17 17 0 8 -8 3 -21 -13z"/>
<path d="M1115 1390 c-3 -5 -1 -10 4 -10 6 0 11 5 11 10 0 6 -2 10 -4 10 -3 0
-8 -4 -11 -10z"/>
<path d="M5388 1393 c7 -3 16 -2 19 1 4 3 -2 6 -13 5 -11 0 -14 -3 -6 -6z"/>
<path d="M1178 1298 c2 -54 7 -87 12 -78 4 8 6 26 5 40 -2 14 -4 49 -4 78 -1
28 -4 52 -8 52 -5 0 -7 -42 -5 -92z"/>
<path d="M5420 1370 c-9 -6 -10 -10 -3 -10 6 0 15 5 18 10 8 12 4 12 -15 0z"/>
<path d="M8992 1373 c-6 -2 -10 -9 -7 -13 7 -11 35 -2 35 11 0 10 -8 10 -28 2z"/>
<path d="M5255 1290 c3 -47 10 -110 15 -140 4 -30 21 -145 37 -255 25 -182 28
-194 31 -130 1 39 -1 167 -6 285 -9 225 -12 240 -62 300 l-21 25 6 -85z"/>
<path d="M9360 1362 c0 -30 86 -82 134 -82 18 1 19 2 6 13 -9 7 -26 25 -38 42
-18 23 -31 29 -63 30 -21 1 -39 -1 -39 -3z"/>
<path d="M9340 1340 c0 -11 4 -20 9 -20 5 0 7 9 4 20 -3 11 -7 20 -9 20 -2 0
-4 -9 -4 -20z"/>
<path d="M5338 1343 c7 -3 16 -2 19 1 4 3 -2 6 -13 5 -11 0 -14 -3 -6 -6z"/>
<path d="M9135 1342 c86 -37 289 -92 335 -92 40 1 5 15 -80 34 -41 10 -100 25
-130 35 -59 19 -161 38 -125 23z"/>
<path d="M9270 1340 c0 -6 7 -10 15 -10 8 0 15 2 15 4 0 2 -7 6 -15 10 -8 3
-15 1 -15 -4z"/>
<path d="M9315 1330 c-3 -5 -1 -10 4 -10 6 0 11 5 11 10 0 6 -2 10 -4 10 -3 0
-8 -4 -11 -10z"/>
<path d="M3382 1295 c0 -16 2 -22 5 -12 2 9 2 23 0 30 -3 6 -5 -1 -5 -18z"/>
<path d="M5375 1310 c-3 -5 -2 -10 4 -10 5 0 13 5 16 10 3 6 2 10 -4 10 -5 0
-13 -4 -16 -10z"/>
<path d="M5516 1297 c-5 -9 -5 -29 0 -45 7 -25 8 -26 11 -4 3 12 3 32 0 45 -3
19 -4 20 -11 4z"/>
<path d="M5415 1240 c-12 -13 -21 -52 -30 -122 -16 -126 -28 -305 -21 -297 6
5 16 94 36 299 8 78 15 108 27 118 31 22 51 14 72 -30 11 -24 20 -35 20 -25 1
10 -6 31 -14 47 -19 36 -62 41 -90 10z"/>
<path d="M9590 1250 c8 -5 22 -9 30 -9 10 0 8 3 -5 9 -27 12 -43 12 -25 0z"/>
<path d="M8065 1230 c3 -5 8 -10 11 -10 2 0 4 5 4 10 0 6 -5 10 -11 10 -5 0
-7 -4 -4 -10z"/>
<path d="M8431 1231 c-9 -6 -10 -11 -2 -15 16 -10 14 -52 -4 -70 -10 -9 -11
-17 -5 -21 6 -4 8 -11 5 -16 -3 -5 1 -6 9 -3 9 3 25 22 37 41 14 22 38 42 68
55 35 15 42 21 31 28 -19 12 -120 13 -139 1z"/>
<path d="M8495 1153 l-18 -28 27 24 c28 26 31 31 17 31 -5 0 -17 -12 -26 -27z"/>
<path d="M1184 1144 c-1 -13 2 -21 7 -18 11 6 12 31 2 37 -5 3 -9 -6 -9 -19z"/>
<path d="M8072 1158 c8 -22 249 -138 288 -138 13 0 20 3 17 7 -4 3 -2 12 5 20
9 11 8 18 -5 30 -14 15 -18 15 -42 -1 -26 -17 -28 -16 -108 25 -45 23 -89 48
-98 55 -20 17 -62 19 -57 2z"/>
<path d="M1176 1093 c-9 -29 4 -126 19 -142 12 -12 13 -2 8 65 -6 81 -16 111
-27 77z"/>
<path d="M8420 1065 c-19 -19 -30 -35 -24 -34 9 0 70 69 62 69 -2 0 -19 -16
-38 -35z"/>
<path d="M8196 1061 c5 -5 20 -12 34 -15 l25 -7 -25 15 c-28 17 -50 21 -34 7z"/>
<path d="M820 911 c-15 -4 29 -10 115 -14 77 -4 158 -10 180 -13 39 -5 39 -5
15 9 -28 16 -269 30 -310 18z"/>
<path d="M1900 888 c0 -7 5 -20 10 -28 8 -12 10 -11 10 7 0 12 -4 25 -10 28
-5 3 -10 0 -10 -7z"/>
<path d="M1850 863 c0 -4 5 -15 10 -23 8 -13 10 -13 10 2 0 9 -4 20 -10 23 -5
3 -10 3 -10 -2z"/>
<path d="M1860 813 c0 -5 10 -19 21 -33 l20 -25 -16 33 c-15 30 -25 41 -25 25z"/>
<path d="M1960 736 c0 -2 7 -9 15 -16 13 -11 14 -10 9 4 -5 14 -24 23 -24 12z"/>
</g>
</svg>
