<?xml version="1.0" standalone="no"?>
<!DOCTYPE svg PUBLIC "-//W3C//DTD SVG 20010904//EN"
 "http://www.w3.org/TR/2001/REC-SVG-20010904/DTD/svg10.dtd">
<svg version="1.0" xmlns="http://www.w3.org/2000/svg"
 width="681.000000pt" height="298.000000pt" viewBox="0 0 681.000000 298.000000"
 preserveAspectRatio="xMidYMid meet">

<g transform="translate(0.000000,298.000000) scale(0.100000,-0.100000)"
fill="#000000" stroke="none">
<path d="M3533 2824 c4 -4 97 -6 207 -5 173 1 200 -1 200 -14 0 -8 -9 -24 -21
-36 -12 -12 -18 -27 -14 -37 3 -9 10 -128 16 -266 5 -137 12 -252 14 -255 3
-2 5 7 5 21 0 28 20 32 42 10 16 -16 35 -15 41 1 3 6 6 -10 7 -38 1 -47 3 -93
14 -378 3 -64 8 -123 12 -130 4 -6 4 -9 0 -5 -4 3 -32 -5 -61 -18 -30 -13 -69
-26 -87 -28 -48 -7 -78 -17 -78 -27 0 -5 3 -9 8 -9 4 0 114 -16 245 -36 131
-20 241 -33 245 -29 4 4 3 9 -3 11 -5 3 -37 19 -70 38 -93 51 -93 50 -97 346
l-3 255 29 0 c42 0 41 16 -1 44 l-36 23 6 132 c4 80 3 145 -4 166 -5 19 -47
87 -93 150 l-82 115 -224 3 c-123 1 -221 -1 -217 -4z m587 -294 c0 -5 -7 -10
-16 -10 -8 0 -12 5 -9 10 3 6 10 10 16 10 5 0 9 -4 9 -10z m-65 -9 c3 -5 1
-12 -5 -16 -5 -3 -10 1 -10 9 0 18 6 21 15 7z m10 -271 c3 -5 1 -10 -4 -10 -6
0 -11 5 -11 10 0 6 2 10 4 10 3 0 8 -4 11 -10z m30 -589 c-6 -5 -25 10 -25 20
0 5 6 4 14 -3 8 -7 12 -15 11 -17z"/>
<path d="M3280 2813 c0 -5 19 -24 42 -44 l42 -37 13 -108 c7 -60 17 -165 24
-234 6 -69 13 -134 15 -145 5 -28 51 -78 63 -70 6 3 11 1 11 -4 0 -17 -22 -13
-60 10 -40 25 -52 39 -45 56 4 12 -32 39 -40 31 -2 -2 0 -21 5 -43 5 -22 17
-114 26 -205 9 -91 20 -196 25 -235 4 -38 11 -103 15 -144 6 -57 13 -80 32
-103 13 -16 23 -31 20 -33 -8 -8 -78 46 -78 60 0 7 -5 17 -12 21 -13 8 -12
-11 22 -416 21 -250 36 -429 65 -810 16 -205 33 -309 34 -215 2 95 31 655 37
701 5 40 2 58 -11 78 -14 21 -18 57 -21 193 -3 93 -8 217 -12 277 -5 79 -4
116 5 138 7 17 13 61 13 99 0 66 1 69 24 69 25 0 51 -22 39 -34 -4 -3 -6 -25
-4 -49 4 -79 1 -682 -4 -702 -3 -12 5 -32 20 -50 l25 -30 -2 424 c-2 293 0
425 8 428 5 2 21 -19 33 -47 13 -28 25 -50 27 -48 2 2 -3 196 -11 431 -8 234
-13 502 -11 596 l5 169 -31 -9 c-32 -9 -78 -45 -78 -61 0 -5 9 -4 20 2 14 7
26 8 38 1 9 -6 12 -11 6 -11 -8 0 -10 -18 -8 -52 10 -131 12 -773 3 -785 -6
-7 -7 -17 -3 -24 4 -6 8 -26 9 -43 1 -17 5 -42 9 -56 3 -14 2 -32 -3 -40 -8
-12 -14 -11 -35 9 -13 13 -29 20 -35 16 -7 -3 -11 2 -11 14 0 12 -3 21 -7 21
-5 0 -10 82 -11 183 -2 100 -7 186 -12 190 -4 5 -1 22 8 39 13 28 14 58 2 270
l-13 240 -51 38 c-28 21 -62 41 -76 45 -14 4 -33 13 -43 20 -16 11 -8 13 53
13 39 0 74 3 77 6 4 3 -37 6 -90 6 -53 0 -97 -3 -97 -7z m219 -2050 c0 -59 -3
-81 -9 -68 -16 38 -11 155 7 155 2 0 3 -39 2 -87z"/>
<path d="M5239 2803 c-1 -16 -7 -41 -14 -62 -3 -11 -2 -21 3 -21 11 0 21 -79
11 -86 -4 -2 -10 7 -13 21 -13 51 -39 65 -119 65 l-73 0 -13 -47 c-7 -27 -15
-54 -17 -61 -2 -7 -14 -12 -26 -10 -17 2 -25 13 -31 40 -15 62 -56 80 -175 77
-101 -3 -122 2 -122 27 0 9 11 14 33 15 30 1 31 1 7 8 -14 5 -35 14 -47 22
-12 7 -24 11 -26 9 -7 -8 -15 -290 -8 -290 8 1 123 160 115 160 -3 0 -15 -11
-26 -25 -22 -28 -54 -35 -44 -9 3 9 6 23 6 32 0 25 46 44 61 26 7 -9 32 -14
70 -14 59 0 59 0 59 -30 0 -29 2 -30 36 -28 64 4 66 -7 60 -252 -3 -118 -6
-260 -6 -315 -1 -63 -4 -93 -10 -80 -7 18 -9 18 -15 3 -8 -20 2 -41 16 -33 5
4 9 -64 9 -169 0 -111 -4 -176 -10 -176 -5 0 -10 -4 -10 -10 0 -5 9 -10 21
-10 12 0 23 -8 26 -20 3 -11 9 -20 13 -20 4 0 15 -18 26 -39 19 -40 58 -71 88
-71 28 0 17 27 -24 62 l-41 33 7 577 c8 644 0 588 81 580 42 -4 44 -6 95 -90
49 -80 53 -84 56 -57 6 51 -10 275 -19 275 -5 0 -9 -3 -10 -7z"/>
<path d="M1158 2771 c-5 -32 24 -82 36 -63 4 7 27 -3 64 -27 31 -21 64 -41 72
-44 31 -12 -33 -7 -89 7 -41 10 -121 14 -301 12 -228 -1 -248 -2 -285 -22 -48
-25 -57 -61 -14 -56 l26 3 -3 -163 c-6 -245 -13 -311 -31 -304 -39 15 -42 -4
-42 -311 0 -163 -2 -298 -4 -300 -12 -11 -16 153 -14 577 l2 475 -35 34 c-19
19 -73 52 -119 73 -46 21 -90 45 -98 53 -8 8 -19 15 -24 15 -22 0 -5 -20 49
-58 32 -23 64 -48 71 -56 21 -25 51 -719 31 -731 -5 -3 -36 11 -70 32 -93 55
-104 99 -33 131 l38 17 -42 3 c-24 2 -51 -2 -60 -8 -17 -11 -17 -11 0 -6 9 3
17 2 17 -3 0 -13 -48 -34 -64 -28 -21 8 -20 -5 5 -50 26 -48 90 -114 154 -161
28 -20 53 -41 58 -47 4 -5 5 -163 2 -349 -5 -259 -3 -341 6 -347 15 -9 5 -37
-18 -47 -10 -4 -38 -20 -62 -37 l-44 -30 54 -12 c206 -46 468 -88 479 -76 3 3
1 8 -5 10 -5 2 -37 18 -70 36 -108 58 -100 -10 -100 879 0 498 4 770 10 777 6
6 151 11 370 13 351 3 389 7 339 33 -41 22 -178 119 -214 151 l-38 34 -4 -29z
m-625 -911 c4 0 7 -7 7 -15 0 -12 -13 -15 -55 -15 -38 0 -55 4 -55 13 0 26 20
35 58 26 20 -5 40 -9 45 -9z m77 -843 l25 -32 -32 25 c-31 24 -41 41 -25 39 4
0 18 -14 32 -32z"/>
<path d="M4811 2766 c10 -9 359 -15 359 -6 0 6 -69 10 -182 10 -100 0 -179 -2
-177 -4z"/>
<path d="M5188 2763 c7 -3 16 -2 19 1 4 3 -2 6 -13 5 -11 0 -14 -3 -6 -6z"/>
<path d="M346 2721 c-9 -14 34 -21 54 -9 10 7 25 8 36 3 11 -5 51 -7 90 -6 44
2 74 -1 78 -8 9 -13 58 -15 71 -2 12 12 275 18 293 7 7 -4 18 -3 25 3 7 5 42
12 77 14 36 2 -111 4 -327 5 -219 1 -394 -2 -397 -7z"/>
<path d="M3535 2650 c-4 -6 5 -10 19 -10 14 0 26 5 26 10 0 6 -9 10 -19 10
-11 0 -23 -4 -26 -10z"/>
<path d="M3532 2590 c0 -14 2 -19 5 -12 2 6 2 18 0 25 -3 6 -5 1 -5 -13z"/>
<path d="M6298 2554 c-3 -3 -2 -18 2 -34 6 -21 4 -32 -6 -41 -8 -6 -14 -25
-14 -41 0 -16 -9 -42 -21 -56 -19 -25 -19 -27 -2 -33 15 -5 14 -7 -7 -10 -17
-3 -23 -9 -20 -19 2 -8 5 -49 6 -90 9 -405 15 -604 19 -610 3 -5 -5 -12 -17
-15 -13 -4 -43 -16 -66 -27 -24 -11 -50 -17 -57 -14 -7 2 -21 -1 -32 -9 -15
-11 -16 -14 -3 -18 28 -9 175 -36 230 -42 30 -4 81 -13 114 -21 88 -23 95 -13
22 30 -37 21 -71 48 -78 59 -6 12 -13 104 -16 225 -5 197 -4 204 14 198 48
-14 152 -36 176 -36 20 0 34 10 53 37 24 36 25 43 25 195 0 86 -4 159 -9 162
-5 4 -29 36 -54 74 -24 37 -54 75 -65 86 -29 25 -55 15 -46 -19 5 -19 2 -25
-10 -25 -9 0 -35 -9 -56 -20 -30 -15 -40 -17 -40 -7 0 7 5 18 12 25 9 9 9 12
1 12 -7 0 -16 19 -20 42 -8 39 -22 56 -35 42z m219 -195 c15 -54 25 -319 12
-319 -4 0 -9 -9 -12 -21 -5 -17 -12 -20 -44 -17 -25 2 -38 8 -38 18 0 8 -14
17 -35 21 -55 12 -61 28 -58 169 l3 125 48 26 c27 14 58 36 70 47 26 27 34 20
54 -49z m-200 -295 c-3 -3 -12 -4 -19 -1 -8 3 -5 6 6 6 11 1 17 -2 13 -5z"/>
<path d="M6480 2110 c0 -11 -4 -20 -10 -20 -18 0 -10 -28 9 -33 14 -3 20 0 19
12 0 9 3 26 7 39 6 16 3 22 -9 22 -9 0 -16 -8 -16 -20z"/>
<path d="M1974 2453 c-54 -49 -114 -102 -133 -120 l-36 -32 48 -1 47 0 1 -362
c1 -200 1 -369 0 -377 -2 -7 -14 -23 -28 -35 l-26 -22 124 -18 c68 -10 145
-22 172 -26 26 -4 47 -5 47 -2 0 3 -14 17 -32 32 l-31 26 -5 203 -5 202 24 -5
c144 -33 179 -34 205 -5 17 18 19 40 22 176 l3 155 -47 72 c-61 94 -83 116
-111 116 -25 0 -29 -10 -11 -28 9 -9 7 -13 -8 -17 -10 -3 -37 -15 -58 -25 -45
-23 -57 -19 -31 10 16 18 16 20 2 20 -14 0 -17 11 -17 69 0 39 -4 72 -9 75 -5
3 -53 -33 -107 -81z m96 -33 c0 -32 -4 -61 -10 -65 -6 -4 -5 -16 1 -33 6 -15
13 -96 16 -180 l5 -152 -30 -11 c-33 -11 -34 -39 -3 -39 20 0 63 -29 43 -30
-10 0 -12 -39 -8 -190 2 -104 8 -195 11 -201 13 -19 -28 7 -57 38 l-27 28 -6
372 c-3 204 -7 378 -10 386 -7 18 54 149 66 141 5 -3 9 -32 9 -64z m138 -269
c1 -112 6 -180 12 -176 11 7 50 -12 50 -25 0 -5 -10 -12 -22 -16 -15 -5 -26
-1 -38 13 -9 11 -32 23 -53 27 -20 4 -41 15 -47 26 -5 10 -10 82 -10 160 l0
141 43 19 c23 11 47 18 52 16 6 -1 11 -75 13 -185z m129 78 c15 -28 17 -62 15
-181 -2 -67 -5 -88 -16 -88 -29 0 -36 29 -40 161 -2 74 -7 145 -11 159 l-8 25
24 -26 c13 -14 30 -36 36 -50z"/>
<path d="M590 2500 c0 -5 9 -10 19 -10 11 0 23 5 26 10 4 6 -5 10 -19 10 -14
0 -26 -4 -26 -10z"/>
<path d="M5080 2470 c0 -20 5 -30 15 -30 8 0 15 4 15 9 0 5 19 7 43 5 39 -3
40 -3 9 5 -18 5 -41 16 -51 25 -25 23 -31 20 -31 -14z"/>
<path d="M5674 2488 c-4 -7 -8 -22 -9 -35 -1 -40 -19 -48 -105 -44 -65 2 -88
-1 -124 -18 l-44 -22 -35 21 c-30 18 -49 20 -123 18 -63 -2 -89 -7 -92 -17 -3
-9 2 -11 17 -6 30 9 43 -2 28 -25 -14 -24 -37 -26 -37 -5 0 33 -16 12 -34 -45
-10 -32 -21 -60 -26 -62 -11 -4 -23 -48 -13 -48 5 0 31 32 58 71 28 38 55 76
60 84 6 7 30 15 55 17 44 3 45 2 48 -28 3 -30 6 -32 44 -32 22 -1 45 -5 50
-10 15 -15 24 -952 9 -952 -6 0 -11 -7 -11 -15 0 -8 6 -12 14 -9 8 3 19 -1 25
-8 6 -7 25 -29 41 -48 16 -19 30 -41 30 -47 0 -17 53 -43 87 -43 27 1 26 2
-26 49 l-55 48 -6 544 c-3 299 -3 548 1 553 5 5 25 5 50 0 38 -8 48 -17 102
-94 l60 -85 -7 94 c-3 52 -6 120 -6 153 0 55 -10 72 -26 46z"/>
<path d="M5500 2460 l-145 -5 106 -8 c104 -9 174 -3 185 14 3 5 4 8 2 7 -2 -1
-68 -5 -148 -8z"/>
<path d="M5243 2453 c20 -2 54 -2 75 0 20 2 3 4 -38 4 -41 0 -58 -2 -37 -4z"/>
<path d="M2150 2410 c-8 -5 -12 -11 -9 -14 3 -3 14 1 25 9 21 16 8 20 -16 5z"/>
<path d="M4502 2403 c-9 -4 -6 -14 13 -39 l25 -33 -30 -16 c-36 -18 -38 -35
-7 -54 20 -13 21 -13 9 1 -11 14 -8 16 23 20 31 3 36 1 41 -19 4 -13 17 -31
29 -41 23 -18 23 -18 3 -31 -11 -7 -30 -14 -42 -17 -28 -5 -44 -29 -39 -58 4
-18 10 -23 21 -18 10 4 12 7 4 10 -7 2 -12 8 -12 13 0 6 4 8 9 5 11 -7 23 22
16 35 -4 5 1 6 10 3 10 -4 13 -13 10 -24 -3 -10 -1 -21 5 -25 7 -4 9 -18 5
-32 -5 -21 -3 -24 15 -18 17 5 20 2 21 -22 1 -15 3 -62 5 -103 1 -41 7 -110
11 -152 7 -62 7 -78 -4 -78 -7 0 -13 -6 -14 -12 -2 -19 -21 73 -20 96 0 11 -6
24 -14 30 -8 6 -15 27 -17 46 -2 20 -8 34 -14 33 -8 -1 -10 6 -6 19 3 14 1 19
-6 14 -8 -5 -12 -53 -12 -152 0 -80 4 -143 8 -140 4 2 14 1 22 -4 19 -12 -3
-38 -47 -57 -41 -17 -57 -17 -50 1 3 8 0 17 -8 20 -36 13 -43 56 -47 304 -3
171 -1 245 6 247 6 2 28 6 49 10 31 5 37 10 37 30 l0 25 -45 -22 c-46 -22 -67
-20 -46 6 10 11 8 16 -6 25 -17 9 -16 12 11 40 17 17 35 31 42 31 6 0 14 9 17
20 8 30 -23 25 -74 -12 -51 -37 -68 -57 -69 -80 0 -29 -15 -28 -47 3 -38 34
-39 35 -46 9 -4 -15 1 -22 21 -26 37 -9 52 -23 52 -46 0 -14 -5 -18 -15 -14
-17 6 -21 -19 -5 -29 6 -3 10 -1 10 4 0 6 4 11 8 11 5 0 9 -15 9 -32 0 -18 3
-97 8 -174 5 -99 4 -144 -4 -148 -8 -5 -11 13 -12 56 -2 94 -3 101 -18 106 -8
3 -11 0 -7 -6 3 -5 -2 -9 -11 -8 -26 2 -45 -76 -38 -155 6 -61 11 -71 48 -111
45 -48 129 -118 142 -118 4 0 0 9 -11 21 -19 21 -19 21 9 8 20 -9 27 -18 24
-31 -7 -26 16 -23 103 15 103 46 159 83 171 115 7 18 7 113 1 295 l-9 268 -44
46 c-47 48 -143 124 -156 122 -4 0 -14 -3 -21 -6z m-202 -493 c0 -5 -4 -10
-10 -10 -5 0 -10 5 -10 10 0 6 5 10 10 10 6 0 10 -4 10 -10z m288 -114 c3 -11
-1 -17 -9 -14 -7 2 -13 12 -15 22 -3 23 20 15 24 -8z m-8 -34 c0 -5 -7 -9 -15
-9 -8 0 -15 4 -15 9 0 4 7 8 15 8 8 0 15 -4 15 -8z m-240 -15 c0 -7 -12 -13
-27 -14 -16 0 -20 1 -10 4 9 2 17 9 17 14 0 5 5 9 10 9 6 0 10 -6 10 -13z"/>
<path d="M4851 2083 c1 -260 13 -521 17 -397 1 22 6 44 11 50 13 13 16 61 7
106 -6 26 -3 46 7 67 9 17 11 31 6 31 -6 0 -7 9 -4 20 4 11 2 20 -4 20 -6 0
-11 -5 -11 -11 0 -5 -4 -8 -9 -4 -6 3 -4 20 5 40 8 19 11 35 8 35 -4 0 -2 6 3
13 23 29 23 48 0 57 -18 7 -19 9 -4 9 11 1 17 7 14 14 -2 6 3 20 11 30 15 16
14 17 -3 11 -15 -6 -17 -4 -12 10 4 10 7 22 7 27 0 5 6 9 14 9 19 0 15 48 -5
60 -11 7 -10 10 4 16 9 3 17 11 17 16 0 6 -7 7 -15 4 -11 -4 -15 0 -13 12 2
11 -3 16 -14 14 -12 -2 -18 4 -18 18 0 11 -4 20 -10 20 -6 0 -10 -105 -9 -297z"/>
<path d="M6096 2341 c-17 -6 -15 -9 12 -20 38 -16 66 -11 70 12 3 13 -3 17
-30 16 -18 0 -42 -4 -52 -8z"/>
<path d="M4320 2310 c-8 -5 -12 -12 -9 -15 4 -3 12 1 19 10 14 17 11 19 -10 5z"/>
<path d="M1464 2183 c-53 -49 -113 -101 -133 -118 l-36 -30 50 -5 50 -5 3
-362 2 -361 -26 -31 c-29 -35 -32 -33 66 -51 36 -6 85 -16 110 -20 25 -5 67
-9 95 -9 l50 -1 -37 30 -36 30 -7 195 c-6 150 -10 195 -20 195 -10 0 -14 -23
-17 -84 -2 -46 0 -82 3 -80 4 2 8 -35 9 -84 3 -116 4 -125 13 -139 14 -23 -9
-14 -49 18 -22 17 -41 32 -43 35 -7 7 -18 676 -11 707 7 34 -6 77 -24 77 -7 0
-7 3 1 8 7 4 25 32 41 62 16 30 33 55 38 57 10 3 12 -107 2 -123 -7 -11 -6
-33 4 -49 3 -5 9 -80 12 -166 l7 -156 -30 -13 c-17 -7 -31 -16 -31 -21 0 -7
59 -28 100 -35 8 -1 54 -10 103 -20 l88 -18 27 27 c26 27 27 30 30 171 l4 145
-32 55 c-49 87 -108 156 -131 156 -17 0 -20 -5 -16 -22 5 -20 -1 -26 -46 -46
-64 -27 -75 -28 -52 -2 10 11 13 20 7 20 -7 0 -12 17 -12 44 0 54 -10 106 -20
106 -5 0 -52 -39 -106 -87z m241 -135 c3 -13 4 -93 3 -178 l-3 -155 -42 -3
c-32 -2 -44 1 -51 15 -10 19 -22 264 -14 296 4 19 53 46 84 47 10 0 20 -10 23
-22z m135 -103 c11 -34 8 -231 -5 -243 -3 -3 -13 -2 -22 4 -13 8 -17 33 -20
132 -1 67 -7 141 -12 164 l-10 43 29 -33 c16 -19 34 -49 40 -67z m-84 -249
c18 -14 18 -15 1 -21 -9 -4 -29 -4 -43 -1 -21 6 -24 9 -14 21 16 19 31 19 56
1z"/>
<path d="M5797 2223 c-4 -3 -2 -12 4 -20 9 -10 6 -17 -9 -30 -12 -10 -37 -46
-56 -80 l-34 -61 -5 -229 c-5 -249 -10 -221 55 -346 24 -48 16 -60 -18 -24
-14 15 -29 27 -34 27 -6 0 -10 9 -10 20 0 10 -6 25 -14 32 -9 9 -11 20 -5 35
10 26 1 29 -24 11 -16 -12 -16 -16 4 -56 12 -23 41 -65 66 -92 43 -48 47 -50
96 -50 66 1 81 10 156 93 l61 67 -26 43 c-14 23 -33 53 -41 66 -23 36 -33 11
-18 -47 14 -51 13 -54 -16 -117 -17 -36 -35 -68 -41 -71 -11 -7 -49 34 -72 76
-10 18 -15 78 -17 205 -3 156 -2 180 11 178 8 -1 51 -10 95 -19 103 -23 127
-16 161 42 26 44 27 49 15 93 -24 91 -110 200 -192 241 -38 20 -80 26 -92 13z
m110 -93 c37 -43 49 -66 74 -138 31 -94 24 -115 -39 -128 -28 -6 -32 -4 -32
15 0 15 -6 21 -24 21 -12 0 -37 5 -55 11 l-31 11 0 98 c0 92 1 99 28 127 30
34 37 32 79 -17z"/>
<path d="M5943 1962 c-17 -11 -9 -45 10 -48 14 -2 16 3 11 24 -8 34 -7 32 -21
24z"/>
<path d="M970 2142 c-86 -37 -110 -54 -107 -72 1 -8 -4 -14 -10 -12 -22 4 -14
-41 13 -83 63 -95 101 -112 106 -48 3 31 11 42 51 71 67 49 77 38 77 -88 l0
-97 -52 -6 c-67 -7 -155 -46 -192 -86 -27 -28 -28 -34 -23 -83 4 -29 13 -74
21 -98 7 -25 21 -71 30 -102 10 -34 25 -62 36 -68 30 -16 86 -12 130 11 l41
21 24 -26 c42 -46 76 -36 180 54 65 57 72 66 55 72 -27 10 -38 42 -46 135 -3
43 -7 92 -9 108 -2 17 -4 73 -4 124 l-1 95 -103 103 c-75 75 -110 103 -128
103 -13 0 -53 -13 -89 -28z m267 -169 c33 -36 33 -37 34 -147 2 -179 8 -271
19 -301 13 -35 9 -39 -34 -31 -43 8 -43 6 -52 256 -4 117 -11 197 -19 217 -13
30 -10 38 15 42 2 1 19 -16 37 -36z m-300 -25 c-3 -7 -5 -2 -5 12 0 14 2 19 5
13 2 -7 2 -19 0 -25z m168 -319 c0 -127 -3 -154 -14 -154 -19 0 -36 68 -44
177 -5 78 -4 89 15 113 37 47 43 29 43 -136z m-90 109 c-9 -44 -8 -93 4 -151
6 -26 13 -68 17 -92 6 -45 6 -45 -25 -45 -34 0 -30 -8 -57 128 -15 79 -15 86
2 125 23 54 33 67 51 67 12 0 14 -7 8 -32z"/>
<path d="M4228 2116 c7 -22 11 -45 8 -52 -3 -8 0 -11 8 -8 14 5 27 69 19 90
-2 7 -14 11 -27 10 -21 -1 -21 -2 -8 -40z"/>
<path d="M4265 1970 c-16 -7 -17 -9 -3 -9 9 -1 20 4 23 9 7 11 7 11 -20 0z"/>
<path d="M2863 1933 c-29 -2 -53 -9 -53 -14 0 -7 12 -8 30 -4 39 9 39 -8 0
-31 -20 -12 -26 -21 -20 -29 6 -7 7 -14 4 -17 -3 -4 -5 -104 -6 -225 0 -120
-3 -243 -7 -273 -6 -36 -9 30 -10 195 -1 279 -5 298 -58 303 -30 3 -73 40 -73
63 0 5 30 10 68 11 l67 2 -75 5 -75 6 -17 -38 c-10 -20 -18 -41 -19 -45 -1 -4
-10 -19 -20 -34 -10 -14 -19 -31 -19 -37 0 -6 -5 -11 -11 -11 -7 0 -9 -10 -7
-25 3 -14 2 -25 -1 -25 -3 0 -15 -24 -25 -52 -10 -29 -31 -74 -48 -100 -19
-31 -27 -54 -23 -67 4 -14 0 -23 -16 -32 -38 -20 -55 14 -63 123 -15 215 -13
207 -62 231 -24 11 -44 24 -44 28 0 5 21 9 48 11 26 2 3 4 -50 4 -96 0 -125
-8 -70 -20 15 -3 38 -14 51 -24 22 -17 24 -30 32 -143 5 -68 11 -212 15 -319
3 -107 10 -199 14 -203 4 -5 25 19 46 53 61 96 125 195 216 335 126 194 127
197 117 223 -7 18 -5 22 10 22 16 0 19 -12 25 -107 8 -141 7 -209 -3 -318 -7
-83 -27 -155 -41 -155 -4 0 -15 -7 -26 -16 -17 -14 -9 -15 101 -10 66 3 138 6
160 6 38 0 39 1 16 13 -13 6 -34 25 -45 40 -20 27 -21 42 -24 322 l-4 293 42
46 c32 35 38 46 24 44 -11 -1 -43 -3 -71 -5z m-413 -567 c0 -3 -4 -8 -10 -11
-5 -3 -10 -1 -10 4 0 6 5 11 10 11 6 0 10 -2 10 -4z"/>
<path d="M2477 1863 c-20 -3 -33 -15 -47 -43 -11 -21 -25 -41 -32 -44 -7 -3
-3 -3 8 -1 20 5 21 1 22 -42 0 -27 5 -79 10 -118 8 -64 9 -68 20 -44 7 18 9
66 5 136 l-6 109 32 27 c18 15 29 26 24 26 -4 -1 -20 -4 -36 -6z"/>
<path d="M4863 1585 c-3 -9 -3 -18 -1 -21 3 -3 8 4 11 16 6 23 -1 27 -10 5z"/>
<path d="M5340 1340 c0 -6 -4 -8 -10 -5 -5 3 -10 -1 -10 -11 0 -14 2 -15 18
-3 9 7 18 14 20 15 2 1 -1 5 -7 9 -6 3 -11 1 -11 -5z"/>
<path d="M5350 1296 c0 -2 7 -6 15 -10 8 -3 15 -1 15 4 0 6 -7 10 -15 10 -8 0
-15 -2 -15 -4z"/>
</g>
</svg>
